<svg width="500" height="500" xmlns="http://www.w3.org/2000/svg">
  <defs>
    <linearGradient id="bg1" x1="0%" y1="0%" x2="100%" y2="100%">
      <stop offset="0%" style="stop-color:#f0f4ed;stop-opacity:1" />
      <stop offset="100%" style="stop-color:#e8f0e3;stop-opacity:1" />
    </linearGradient>
  </defs>
  <rect width="500" height="500" fill="url(#bg1)"/>
  <circle cx="250" cy="220" r="120" fill="#DFC4AC" opacity="0.3"/>
  <circle cx="250" cy="220" r="100" fill="#E8D4BC"/>

  <!-- Makhana pieces -->
  <circle cx="200" cy="180" r="25" fill="#F5E6D3"/>
  <circle cx="280" cy="170" r="28" fill="#F0DCC8"/>
  <circle cx="250" cy="220" r="30" fill="#EDD5C4"/>
  <circle cx="220" cy="260" r="26" fill="#F2E0CF"/>
  <circle cx="290" cy="250" r="24" fill="#F5E6D3"/>
  <circle cx="250" cy="140" r="22" fill="#EDD5C4"/>

  <!-- Texture lines -->
  <path d="M 200 180 Q 210 170 220 175" stroke="#D4B39E" stroke-width="1" fill="none" opacity="0.5"/>
  <path d="M 280 170 Q 290 160 300 165" stroke="#D4B39E" stroke-width="1" fill="none" opacity="0.5"/>

  <!-- Salt crystals -->
  <circle cx="210" cy="190" r="3" fill="#DFC4AC" opacity="0.8"/>
  <circle cx="235" cy="210" r="2" fill="#DFC4AC" opacity="0.8"/>
  <circle cx="270" cy="240" r="3" fill="#DFC4AC" opacity="0.8"/>
  <circle cx="245" cy="270" r="2" fill="#DFC4AC" opacity="0.8"/>

  <!-- Label -->
  <text x="250" y="380" font-family="Arial, sans-serif" font-size="24" font-weight="bold" text-anchor="middle" fill="#475d2a">Himalayan Salt Makhana</text>
  <text x="250" y="410" font-family="Arial, sans-serif" font-size="14" text-anchor="middle" fill="#5a6a4a">Air-popped Fox Nuts</text>

  <!-- Emoji -->
  <text x="250" y="480" font-size="40" text-anchor="middle">🌰</text>
</svg>
