<?xml version="1.0" encoding="UTF-8"?>
<svg xmlns="http://www.w3.org/2000/svg" version="1.1" viewBox="0 0 720 720">
  <defs>
    <style>
      .cls-1 {
        fill: #e0ebd4;
        opacity: .3;
        stroke: #231f20;
      }

      .cls-1, .cls-2, .cls-3, .cls-4 {
        stroke-miterlimit: 10;
      }

      .cls-5 {
        fill: #231f20;
      }

      .cls-2, .cls-3 {
        fill: none;
        stroke: #2b5234;
      }

      .cls-6 {
        fill: #62a544;
      }

      .cls-7 {
        fill: #9ccb3b;
      }

      .cls-8, .cls-4 {
        fill: #2e5234;
      }

      .cls-9 {
        fill: #2b5234;
      }

      .cls-10 {
        fill: #4e7d3a;
      }

      .cls-11 {
        fill: #020303;
      }

      .cls-3 {
        stroke-width: 2px;
      }

      .cls-12 {
        fill: #f6c91c;
      }

      .cls-4 {
        stroke: #fed402;
        stroke-width: .8px;
      }
    </style>
  </defs>
  <!-- Generator: Adobe Illustrator 28.7.1, SVG Export Plug-In . SVG Version: 1.2.0 Build 142)  -->
  <g>
    <g id="SE_LOGO">
      <g>
        <path class="cls-8" d="M355.4,251.6c.9,0,1.8,0,2.6,0,0-6.2,0-12.4,0-18.6-2.4.3-4.7.7-7.1,1-10.5-.2-21-.4-31.4-.6,0,3.2,0,6.4,0,9.6.3,1.4.6,2.8,1,4.1,1.6,1.4,3.1,2.8,4.7,4.2.5-4.2,1-8.4,1.5-12.6.9,0,10.6-.3,18.8,0,1.4,0,3.7.1,5.9,1.7,1.4,1,2.2,2.3,2.5,2.7,1,1.6,1.2,3,1.4,4.2.2,1,.3,2.5.1,4.3Z"/>
        <path class="cls-12" d="M356.3,250.9h1.7c.1-6.2.2-12.5.3-18.7-.5.2-1.4.4-2.4.6,0,0,0,0,0,0,0,0,0,0,0,0s-2.7.4-3.8.5c-1,0-8.2.1-31.8.2,0,2,0,3.6,0,4.7,0,3.6-.1,4.6.3,6.2.5,1.7,1.3,2.8,1.8,3.4,1.9,2.6,4.3,3.9,5.8,4.5v-14.5c8.2-.2,14.5,0,17.6.1,1.1,0,3.2.2,5.4,1.3.6.3,1.5.8,2.3,1.7,1.6,1.6,2,3.5,2.4,5.4.2,1.1.5,2.7.4,4.7Z"/>
        <path class="cls-8" d="M319.5,314.9c0-1.7,0-3.3,0-5,8.6.2,17.4,0,26.5-.2,2.1,0,4.2-.2,6.2-.3.9-.3,2.2-.8,3.1-2,.3-.4.9-1.3,1.3-5.1.2-1.8.3-3.3.3-4.4.8,0,1.6,0,2.4-.1,0,2.8,0,5.7,0,8.5,0,2.6,0,5.5,0,8.2-13.3.1-26.6.3-39.9.4Z"/>
        <path class="cls-8" d="M319.3,243.2c2.6,3,5.3,6,7.9,8.9,0,7.2,0,14.4,0,21.6,11,.4,19,.3,21.6.1,1.7-.1,3.2-1,3.2-1,1.2-.5,2.3-1.1,3.2-2.4.6-.9.8-1.7,1.1-2.7.3-1.4.4-2.6.3-3.4.3,0,.7,0,1,0v23.1c-.8,0-1.7,0-2.5,0,0-1.5,0-2.8-.3-3.7-.2-.8-.3-1.5-.8-2.2-.2-.3-1.1-1.8-2.9-2.4-.7-.2-1.2-.3-1.5-.3-2-.1-10.6,0-22.5,0-.1,12-.3,24-.4,36-2.5.2-5,.4-7.5.6,0-15,0-30.1,0-45.1,0-7.9,0-19.3,0-27.2Z"/>
        <path class="cls-12" d="M320.3,244.3c2.5,2.7,4.9,5.4,7.4,8.1.1,6.5.3,13.1.4,19.6,12.2.4,21.2.4,23.5.2.7,0,1.6-.2,2.5-.8,1-.7,1.5-1.8,1.8-2.3.4-1,.5-1.8.7-3.2,0-.8.1-1.4.1-1.8.3,0,.7,0,1,0-.1,7.3-.3,14.5-.4,21.8l-.7-.2c.1-.7.3-2,0-3.5-.2-.8-.4-1.8-1.2-2.7-1.1-1.4-2.6-1.8-3.3-2-.5-.1-.9-.2-1.2-.3,0,0-.2,0-.3,0-.7,0-15.7,0-22.5,0-.1,12-.3,24-.4,36-2.5.2-5,.4-7.5.6,0-15,0-30,0-45.1,0-8.1,0-16.2.1-24.3Z"/>
        <path class="cls-4" d="M368.5,235.2c0-8.1,0-16.2,0-24.4-1-.2-2.3-.6-4-.9-2.1-.5-10.1-2.2-17-2.7-7.6-.6-13.8-1.1-20.7,1.5-2.2.8-9.1,3.5-14.5,10.6-.9,1.2-8.3,11.4-5.9,24.7,1.9,10.3,8.6,16.6,10.3,18.1,1.2,1.1,2.5,2.1,5.1,4.2,3.5,2.7,6.6,5,12.3,8.8,8.5,5.7,9.9,6.4,15.2,10.3,5,3.7,6.9,5.4,8.8,7.9,3.1,4.2,4.3,8.1,4.6,9.2.5,1.9,1.8,6.6.4,12.5-1.3,5.4-4.1,8.8-4.8,9.5-3.4,4-7.4,5.6-9.9,6.6-5.3,2.1-9.9,2.1-12.6,2-3.2,0-8.2-.2-13.7-2.9-6.7-3.4-10.1-8.6-11.4-10.6-5-7.9-5-15.9-4.8-19-.9,0-1.8.1-2.7.2,0,10-.1,20-.2,30,3,1.6,7.2,3.4,12.3,4.9,9.3,2.8,16.8,2.9,18.9,2.9,6.1,0,13.2,0,21.2-3.7,2.9-1.4,9-4.3,13.9-11,1-1.4,4.7-6.7,6-14.7,1.4-8.5-.7-15.1-1.5-17.2-2.1-5.8-5.2-9.5-7.1-11.8-2.8-3.3-5.7-5.5-11.4-9.7-1.1-.8-3.9-2.9-12.3-8.4-9.4-6.3-11.1-7.1-14.8-10.3-4.2-3.6-6.6-5.7-8.6-9.5-1-1.9-3.1-6.2-2.4-11.9.7-6,4.1-9.7,5.3-11,3.8-4.1,8.1-5.5,10.6-6.2,6.6-2,12.2-.9,14.7-.4,2.3.5,5.1,1.1,8.2,3.1,4.3,2.8,6.5,6.5,7.7,8.6,2,3.4,2.4,5.9,2.6,6.6.3,1.6.3,2.9.3,3.9.6,0,1.3.1,1.9.2Z"/>
        <path class="cls-10" d="M386.3,198.5c-.2-.3,1.8-2.6,4.2-4.6,3.1-2.5,6-3.7,6.7-3.9,1.4-.5,3.7-1.3,6.8-1.4.7,0,2.9,0,5.7.8,2.3.7,4,1.6,5.2,2.4-.4.7-.9,1.5-1.6,2.5-1.7,2.4-3.4,3.8-3.7,4.1-.7.6-2.7,2.3-5.9,3.6-3.3,1.4-6.1,1.6-6.8,1.6-2.8.2-5-.3-6.2-.6-1.9-.5-3.4-1.2-4.5-1.7,1.8-1.3,3.4-2.4,4.8-3.1.7-.4,3-1.6,6.3-2.6,1.3-.4,3.1-1,5.5-1.3,1.5-.2,2.8-.3,3.7-.3-.7-.2-1.7-.5-2.9-.6-2.3-.3-4,0-5.6.3-3.2.6-5.6,1.6-6.4,1.9-3.4,1.5-5.1,3.1-5.3,2.9Z"/>
        <path class="cls-6" d="M387,192.6c-.8-2.1-1.8-3.8-2.5-4.9-1.1-1.7-2.3-3.5-4.5-5.2-1.4-1.1-2.8-1.7-3.7-2,1.3,1.2,2.3,2.3,3.1,3.2,2.3,2.7,3.7,5.2,4.6,6.7.8,1.5,1.4,2.9,1.8,4-.3,0-.8,0-1.3,0-1.4-.2-2.4-.7-3.1-1-4-1.9-6.2-4.7-6.2-4.7-2-2.6-2.7-5.1-3.1-6.8-.7-2.7-.7-5.1-.5-6.6.9,0,2.2.2,3.6.6.9.3,3.4,1.1,5.9,3.2.5.4,2.4,2.1,3.9,5,1.8,3.4,2.1,6.7,2.1,8.6Z"/>
        <path class="cls-7" d="M389.9,189.5c.6-1.2,1.4-2.7,2.5-4.1,1.8-2.4,3.8-4,5.2-5-1,.3-2.1.8-3.3,1.6-3,2-4.5,4.8-5.2,6.2.1-1.2.6-4.2,2.9-6.9,2.2-2.7,4.8-3.7,5.5-3.9,1.6-.6,3-.7,4-.7,0,1.1,0,3.1-1.1,5.3-1.4,3.3-3.8,5-4.5,5.4-2.5,1.7-4.9,2-6,2.1Z"/>
        <circle class="cls-3" cx="337.9" cy="273.2" r="80.3"/>
        <circle class="cls-2" cx="337.9" cy="273.2" r="74.1"/>
        <path class="cls-8" d="M335,275.6l11.2.4c0,.9,0,1.8-.1,2.7-3.7,0-7.5.1-11.2.2,0-1.1,0-2.2.1-3.3Z"/>
        <path class="cls-12" d="M337.4,271.8c4.2,0,8.4,0,12.6,0,.7,0,3.6,0,5-2,.5-.8.7-1.8.9-3.1.2-1.1.2-2.2.2-3,0,0,.7,0,.7,0,0,0,1.3,0,1.3,0v23.5h-2.1c.1-1.7,0-3.1-.3-4-.2-.9-.3-1.5-.8-2.2-.3-.4-1.2-1.8-2.9-2.4-.6-.2-1.1-.3-1.5-.3-8-.1-16-.2-24.1-.4,0-2.1,0-4.2,0-6.3,3.6.2,7.3.3,10.9.5Z"/>
        <path class="cls-12" d="M320.2,315.5c0-1.7,0-3.3,0-5,8.6.2,17.4,0,26.5-.2,2.1,0,4.2-.2,6.2-.3.9-.3,2.2-.8,3.1-2,.3-.4.9-1.3,1.3-5.1.2-1.8.3-3.3.3-4.4.8,0,1.6,0,2.4-.1,0,2.8,0,5.7,0,8.5,0,2.6,0,5.5,0,8.2-13.3.1-26.6.3-39.9.4Z"/>
      </g>
    </g>
    <g id="SHUDDH_EATS">
      <rect class="cls-8" x="196.8" y="40.8" width="27" height="27"/>
      <rect class="cls-12" x="317.2" y="40.8" width="27" height="27"/>
      <rect class="cls-1" x="431.6" y="40.8" width="27" height="27"/>
      <g>
        <path class="cls-5" d="M168.6,97.6h2.5v1.3h-2.8l-.7,3.5h-1.5l.7-3.5h-2.9l-.7,3.5h-1.5l.7-3.5h-1.6v-1.3h1.9l.7-3.2h-2.6v-1.3h2.8l.7-3.3h1.5l-.7,3.3h2.9l.7-3.3h1.5l-.7,3.3h1.5v1.3h-1.8l-.7,3.2ZM167.1,97.6l.7-3.2h-2.9l-.7,3.2h2.9Z"/>
        <path class="cls-5" d="M178.8,98c.8-.7,1.4-1.4,1.9-1.9.4-.6.7-1.1.9-1.5.1-.4.2-.9.2-1.3s0-.8-.2-1.1c-.2-.3-.4-.5-.6-.7-.3-.2-.5-.3-.9-.3-.3,0-.6,0-.9,0s-.8,0-1.3,0c-.4,0-.9.1-1.4.3v-1.4c.8-.2,1.8-.3,2.9-.3s1.2,0,1.7.2c.5.1.9.3,1.3.6.4.3.6.7.8,1.1.2.5.3,1,.3,1.6s0,1.1-.3,1.6c-.2.5-.5,1-.9,1.6-.4.5-.9,1.1-1.6,1.7s-1.5,1.3-2.5,2.1l-.7.6v.2h6.5v1.4h-8.3v-1.7c1.3-1,2.4-1.9,3.2-2.7Z"/>
        <path class="cls-5" d="M197.1,102.4h-7.4v-12.6h7v1.4h-5.4v3.9h5v1.4h-5v4.4h5.8v1.5Z"/>
        <path class="cls-5" d="M205.3,102.5c-.5,0-1,0-1.4,0-.4,0-.8,0-1.2-.2v-1.4c.5.1.9.2,1.3.2.4,0,.8,0,1.3,0s1,0,1.4-.1c.4,0,.8-.2,1.1-.5.3-.2.5-.5.7-.8s.3-.8.3-1.3c0-.9-.3-1.6-.8-2.1-.5-.4-1.5-.6-2.8-.6s-.7,0-1.2,0c-.4,0-.9.1-1.2.2l.9-6.2h5.9v1.4h-4.6l-.5,3.4c.2,0,.5,0,.7,0,.2,0,.5,0,.8,0,1.5,0,2.6.3,3.4.9.8.6,1.2,1.6,1.2,2.9s-.1,1.4-.4,1.9-.6,1-1,1.3-1,.6-1.6.7-1.3.2-2.1.2Z"/>
        <path class="cls-5" d="M218.9,98c.8-.7,1.4-1.4,1.9-1.9.4-.6.7-1.1.9-1.5.1-.4.2-.9.2-1.3s0-.8-.2-1.1c-.2-.3-.4-.5-.6-.7-.3-.2-.5-.3-.9-.3-.3,0-.6,0-.9,0s-.8,0-1.3,0c-.4,0-.9.1-1.4.3v-1.4c.8-.2,1.8-.3,2.9-.3s1.2,0,1.7.2c.5.1.9.3,1.3.6.4.3.6.7.8,1.1.2.5.3,1,.3,1.6s0,1.1-.3,1.6c-.2.5-.5,1-.9,1.6-.4.5-.9,1.1-1.6,1.7s-1.5,1.3-2.5,2.1l-.7.6v.2h6.5v1.4h-8.3v-1.7c1.3-1,2.4-1.9,3.2-2.7Z"/>
        <path class="cls-5" d="M232.3,102.5c-.5,0-1,0-1.5,0-.5,0-.9,0-1.3-.2v-1.4c.5.1,1,.2,1.4.2.5,0,.9,0,1.4,0s.9,0,1.3-.1.8-.2,1-.4c.3-.2.5-.4.7-.7.2-.3.3-.7.3-1.1,0-.9-.3-1.5-.9-1.9-.6-.4-1.5-.5-2.7-.5h-1v-1.2h1c1.1,0,1.9-.2,2.5-.6.6-.4.9-1,.9-1.6s-.2-1.3-.7-1.6c-.4-.3-1.1-.5-2-.5s-.8,0-1.2,0-.9.2-1.3.3v-1.3c.3,0,.7-.2,1.2-.3.5,0,1-.1,1.4-.1,1.4,0,2.4.3,3.1.8.7.5,1,1.4,1,2.5s-.2,1.5-.6,1.9c-.4.4-.9.8-1.6,1h0c.9.3,1.6.6,2,1.1.4.5.6,1.2.6,2s-.4,2.1-1.2,2.7c-.8.6-2,1-3.7,1Z"/>
        <path class="cls-5" d="M249.8,99.3v3.1h-1.5v-3.1h-5.9v-1.8l5.5-7.7h2v8.1h1.5v1.4h-1.5ZM248.2,97.9v-6.4h-.1l-4.5,6.3h0c0,.1,4.6.1,4.6.1Z"/>
      </g>
      <g>
        <path class="cls-5" d="M410.8,97.8h2.5v1.3h-2.8l-.7,3.5h-1.5l.7-3.5h-2.9l-.7,3.5h-1.5l.7-3.5h-1.6v-1.3h1.9l.7-3.2h-2.6v-1.3h2.8l.7-3.3h1.5l-.7,3.3h2.9l.7-3.3h1.5l-.7,3.3h1.5v1.3h-1.8l-.7,3.2ZM409.4,97.8l.7-3.2h-2.9l-.7,3.2h2.9Z"/>
        <path class="cls-5" d="M425.8,102.5h-7.4v-12.6h7v1.4h-5.4v3.9h5v1.4h-5v4.4h5.8v1.5Z"/>
        <path class="cls-5" d="M435.1,102.7c-.6,0-1.2,0-1.7-.3-.5-.2-1-.5-1.3-1-.4-.5-.7-1.1-.9-2-.2-.8-.3-1.9-.3-3.2s.1-2.4.3-3.2c.2-.8.5-1.5.9-2s.8-.8,1.3-1c.5-.2,1.1-.3,1.7-.3s1.2,0,1.7.3c.5.2,1,.5,1.3,1s.7,1.1.9,2,.3,1.9.3,3.2-.1,2.4-.3,3.2c-.2.8-.5,1.5-.9,2-.4.5-.8.8-1.3,1-.5.2-1.1.3-1.7.3ZM432.5,96.3c0,1,0,1.8.2,2.5.1.7.3,1.2.5,1.6s.5.7.8.8.7.2,1.1.2.8,0,1.2-.2c.3-.2.6-.4.8-.8.2-.4.4-.9.5-1.6.1-.7.2-1.5.2-2.5s0-1.8-.2-2.5c-.1-.7-.3-1.2-.5-1.6-.2-.4-.5-.7-.8-.8-.3-.2-.7-.2-1.2-.2s-.8,0-1.1.2-.6.4-.8.8-.4.9-.5,1.6c-.1.7-.2,1.5-.2,2.5Z"/>
        <path class="cls-5" d="M452.5,102.5h-7.4v-12.6h7v1.4h-5.4v3.9h5v1.4h-5v4.4h5.8v1.5Z"/>
        <path class="cls-5" d="M461.9,90c.8,0,1.5,0,2,.2s1,.3,1.3.6c.3.3.5.6.7,1,.1.4.2.9.2,1.5s-.1,1.2-.4,1.7-.7.8-1.4,1h0c.4.2.8.3,1.1.5.3.2.5.4.7.6.2.3.3.5.4.9,0,.3.1.7.1,1,0,.6,0,1.1-.2,1.5s-.4.8-.7,1.1c-.3.3-.8.5-1.3.7-.5.2-1.2.2-2.1.2h-4v-12.6h3.6ZM461.1,95.5c.6,0,1.1,0,1.5,0,.4,0,.8-.2,1-.3.3-.2.5-.4.6-.6.1-.3.2-.6.2-1s0-.8-.2-1.1c-.1-.3-.3-.5-.6-.6s-.6-.2-1-.3c-.4,0-.9,0-1.5,0h-1.2v4.1h1.2ZM461.5,101.1c.6,0,1.2,0,1.6,0,.4,0,.8-.2,1-.3.3-.2.4-.4.5-.7s.2-.7.2-1.1,0-.7-.2-1-.3-.5-.5-.7c-.3-.2-.6-.3-1-.4-.4,0-1-.1-1.6-.1h-1.7v4.4h1.7Z"/>
        <path class="cls-5" d="M476.2,90c.9,0,1.7,0,2.5.2.7.2,1.4.5,1.9.9.5.5.9,1.1,1.2,1.9.3.8.4,1.9.4,3.2s-.1,2.2-.4,3c-.3.8-.7,1.4-1.2,1.9-.5.5-1.2.8-1.9,1-.7.2-1.6.3-2.5.3h-3.6v-12.6h3.6ZM476.1,101.1c.7,0,1.2,0,1.8-.2.5-.2,1-.4,1.4-.8s.7-.9.9-1.5c.2-.6.3-1.4.3-2.4s-.1-1.8-.3-2.5c-.2-.6-.5-1.1-.9-1.5-.4-.4-.9-.6-1.4-.7-.5-.1-1.1-.2-1.8-.2h-2v9.7h2Z"/>
        <path class="cls-5" d="M494.7,99.4v3.1h-1.5v-3.1h-5.9v-1.8l5.5-7.7h2v8.1h1.5v1.4h-1.5ZM493.2,98.1v-6.4h-.1l-4.5,6.3h0c0,.1,4.6.1,4.6.1Z"/>
      </g>
      <g>
        <path class="cls-5" d="M294.9,98h2.5v1.3h-2.8l-.7,3.5h-1.5l.7-3.5h-2.9l-.7,3.5h-1.5l.7-3.5h-1.6v-1.3h1.9l.7-3.2h-2.6v-1.3h2.8l.7-3.3h1.5l-.7,3.3h2.9l.7-3.3h1.5l-.7,3.3h1.5v1.3h-1.8l-.7,3.2ZM293.5,98l.7-3.2h-2.9l-.7,3.2h2.9Z"/>
        <path class="cls-5" d="M304.2,95.7h5v1.4h-5v5.6h-1.6v-12.6h7v1.4h-5.4v4.1Z"/>
        <path class="cls-5" d="M318.7,102.9c-.6,0-1.1,0-1.6-.2-.5-.2-.9-.4-1.3-.8-.4-.4-.7-.9-.9-1.5-.2-.6-.3-1.5-.3-2.4s.1-2.2.4-3.2.7-1.8,1.2-2.5c.5-.7,1.2-1.2,2.1-1.6.9-.4,1.9-.6,3-.6v1.4c-.8,0-1.5.1-2.1.3s-1.1.5-1.5.9c-.4.4-.8.8-1,1.3-.2.5-.4,1.1-.4,1.7h0c.2-.2.6-.5,1.1-.7.5-.2,1-.3,1.6-.3,1.2,0,2.1.3,2.8,1,.7.7,1,1.7,1,3.1s0,1.2-.2,1.7-.4,1-.7,1.4-.8.7-1.3.9c-.5.2-1.1.3-1.8.3ZM316.1,98.3c0,2.2.9,3.2,2.6,3.2s2.6-1,2.6-3-.2-1.6-.7-2.1c-.4-.5-1-.7-1.7-.7s-1.7.2-2.1.7c-.4.5-.7,1.1-.7,1.8Z"/>
        <path class="cls-5" d="M334,102.9c-.9,0-1.7,0-2.4-.3-.7-.2-1.3-.5-1.8-1-.5-.5-.9-1.1-1.2-2-.3-.8-.4-1.9-.4-3.2s.1-2.2.4-3.1c.3-.8.7-1.5,1.2-2s1.1-.9,1.9-1.1c.7-.2,1.5-.3,2.5-.3s1.1,0,1.5,0c.4,0,.8.2,1.2.3v1.5c-.4-.1-.8-.2-1.2-.3-.4,0-.9-.1-1.5-.1s-1.3,0-1.9.3-1,.4-1.3.8-.6.9-.8,1.5c-.2.6-.3,1.4-.3,2.4s0,1.8.2,2.5c.2.6.4,1.2.7,1.5.3.4.8.6,1.3.8.5.2,1.1.2,1.8.2s1.1,0,1.6-.1c.5,0,.9-.2,1.4-.4v1.4c-.3.2-.8.3-1.3.4-.5.1-1.1.2-1.7.2Z"/>
        <path class="cls-5" d="M343.5,101.6c.8,0,1.5-.1,2.1-.3s1.1-.5,1.5-.9c.4-.4.7-.8,1-1.4.2-.5.4-1.1.4-1.7h0c-.2.3-.6.5-1,.7s-1,.3-1.6.3-1.1,0-1.6-.2-.9-.4-1.2-.7c-.3-.3-.6-.7-.8-1.2-.2-.5-.3-1.1-.3-1.8s0-1.2.2-1.7c.2-.5.4-1,.8-1.4s.8-.7,1.3-.9c.5-.2,1.1-.3,1.8-.3s1.1,0,1.6.3.9.5,1.3.9c.4.4.7.9.9,1.6.2.7.3,1.5.3,2.4s-.1,2.2-.4,3.2c-.3,1-.7,1.8-1.2,2.5-.5.7-1.2,1.2-2.1,1.6-.8.4-1.9.6-3,.6v-1.4ZM343.5,94.4c0,.9.2,1.6.7,2.1.4.4,1,.7,1.7.7s1.7-.2,2.1-.7c.5-.5.7-1.1.7-1.8s-.2-1.9-.7-2.4-1.1-.9-2-.9-1.5.3-1.9.8c-.4.5-.6,1.3-.6,2.3Z"/>
        <path class="cls-5" d="M356.3,92.2v-1.3l3.7-.8h1.1v12.6h-1.6v-11.1l-3.1.6Z"/>
        <path class="cls-5" d="M375,102.9c-.9,0-1.7,0-2.4-.3-.7-.2-1.3-.5-1.8-1-.5-.5-.9-1.1-1.2-2-.3-.8-.4-1.9-.4-3.2s.1-2.2.4-3.1c.3-.8.7-1.5,1.2-2s1.1-.9,1.9-1.1c.7-.2,1.5-.3,2.5-.3s1.1,0,1.5,0c.4,0,.8.2,1.2.3v1.5c-.4-.1-.8-.2-1.2-.3-.4,0-.9-.1-1.5-.1s-1.3,0-1.9.3-1,.4-1.3.8-.6.9-.8,1.5c-.2.6-.3,1.4-.3,2.4s0,1.8.2,2.5c.2.6.4,1.2.7,1.5.3.4.8.6,1.3.8.5.2,1.1.2,1.8.2s1.1,0,1.6-.1c.5,0,.9-.2,1.4-.4v1.4c-.3.2-.8.3-1.3.4-.5.1-1.1.2-1.7.2Z"/>
      </g>
      <g>
        <path class="cls-9" d="M228.4,445.2c-.7,0-1.4,0-2-.1-.4,0-.8,0-1.2-.1-.3,0-.5-.2-.7-.3-.2-.2-.3-.3-.6-.4-.3-.1-.5-.2-.8-.3-.7-.3-1.2-.7-1.8-1.2-1-.9-1.9-2.4-1.9-3.7s.8-2.3,1.9-2.9c.2-.1,1.1-.6,1.6-.6.1,0,.2,0,.2.1s-.2.2-.3.3c-.1,0-.4.1-.5.3-.1.1-.1.3-.3.4-.2.2-.6.2-.6.6s0,.3.1.5c.2.7.4,1,1,1.5.5.4,1,.8,1.6,1,.3.1.6.3.9.3.3,0,.6,0,.9,0,.6.2,1,.6,1.7.6s.5,0,.9,0,.4,0,.7,0c.7,0,1.4-.3,2.1-.4.1,0,.6-.1.9-.1s.3,0,.3.1,0,0,0,0c0,.2-.7.2-.9.3-.3,0-.7.2-1,.3,0,0-1.1.3-1.7.3s-.9,0-1.3,0c-.2,0-.3,0-.5,0-.2,0-.3,0-.3,0-.2,0-.3,0-.5.1-.1,0-.3,0-.4,0-.3,0-.7,0-1,0-.4,0-1.3,0-1.3.4s.6.3.8.3c.4,0,.6.1,1,.2.4,0,.8.1,1.2.1s.9,0,1.3,0,.6,0,.9,0c.3,0,.6,0,.9,0,.3,0,.6-.2,1-.3.3,0,.6,0,.9-.1.3-.1.6-.3.9-.4.2,0,.3,0,.5,0,.2,0,.3-.1.4-.3.1-.2,0-.3.2-.4.2-.2.7-.3.9-.4.3-.2.5-.4.7-.7.2-.2.3-.4.6-.6.3-.1.6-.4.9-.4s.4.1.6.1.2,0,.3,0c.2,0,.2-.2.2-.2,0,0,0-.1,0-.2,0-.3.4-.6.6-.8.3-.2.6-.3.8-.6.2-.2.3-.5.4-.7.2-.5.3-1,.3-1.5s0-.5,0-.7c-.2-.7-.4-1.2-.9-1.6-.2-.2-.3-.4-.5-.6-.2-.2-.6-.4-.9-.6-1.4-.7-2.7-1.4-4.2-1.8-.8-.2-1.6-.5-2.4-.7-.4-.1-.8-.2-1.2-.4-.2,0-1-.2-1.2-.5-.1-.2,0-.4-.2-.5,0,0-.2,0-.3-.1-.2,0-.5,0-.7-.1-.4-.1-.8-.3-1.2-.4-.4-.2-.7-.4-1-.6-.4-.4-1-1-1.2-1.5,0-.1,0-.3,0-.4,0-.1-.2-.3-.3-.4-.2-.4-.4-.7-.4-1.1s.2-.7.2-1-.1-.5-.1-.6.2-.6.5-1.1c.2-.4.4-.9.6-1.2.2-.3.4-.4.6-.6.3-.2.4-.5.7-.7.5-.5,1.2-.9,1.8-1.4,1.6-1.2,3.4-2.3,5.2-3.2,1.1-.5,2.2-1,3.3-1.5.9-.4,1.9-.8,2.8-1.1.7-.3,1.4-.5,2.1-.8.5-.2,1-.3,1.4-.5.4-.1.9-.3,1.4-.4.3,0,.6,0,.9-.2.2,0,.3-.2.5-.2s.2,0,.3,0c.2,0,.3-.2.4-.3.1-.1.2-.2.4-.2,0,0,.2,0,.3,0,.2,0,.4-.1.4-.2s-.2-.2-.4-.2c-.3,0-.7.1-.9.1-.4,0-.8.2-1.2.3-.9.2-1.7.3-2.6.6-.2,0-1.9.8-2.4.8s-.2,0-.2,0c0-.4,3.3-1.3,3.7-1.4,1.4-.4,2.9-.8,4.4-.9.4,0,.6,0,1-.2.1,0,.3-.2.4-.2s0,0,.1,0c.2,0,.5.5.6.7.3.2.6.4.9.5.2.1.4.2.6.2s0,0,.1,0c.2,0,.3,0,.5,0s.2,0,.4.1c.2.1.3.3.5.4.1.1.2.1.3.2.1,0,.2,0,.3,0,.4.3.7,1.1.8,1.6.2.5.3,1.1.3,1.6s0,.4,0,.6c-.1.7-.3,1.4-.5,2-.2.7-.6,1.3-1,1.9-.3.4-.7.7-1,1-.2.3-.4.5-.7.6-.3.1-.6.2-.8.4-.5.4-1,.9-1.6,1.3-.5.4-.9.8-1.5,1.2-.5.4-1.1.9-1.7,1.1-.3,0-.6,0-1,.2-.2,0-.4.1-.6.1-.6,0-1.1-.5-1.3-1.3,0-.3-.1-.7-.2-1,0-.2,0-.3,0-.4s0-.2.2-.2.3.2.5.2c.1,0,.2-.1.3-.2.3-.1.6-.2.8-.4.6-.3,1.1-.9,1.6-1.3,1.1-.9,2.2-1.9,3.2-2.9.5-.5.9-1,1.3-1.5.5-.6,1.2-1.3,1.2-2.1s0-.1-.1-.1c-.1,0-.4.1-.7.2-.3,0-.5,0-.8,0-.7,0-1.4-.1-2-.1-1.3,0-2.6.3-3.9.7-1.4.4-2.8.8-4.2,1.3-1.3.5-2.7.9-4,1.5-1.4.6-2.7,1.3-4,2-1.2.6-2.5,1.3-3.5,2.3-.4.4-.8.8-1.2,1.2-.5.5-1,.9-1.4,1.5-.3.4-.6.7-.6,1.1s0,.3.2.5c.2.3,1,1.1,1.5,1.1s.2-.1.4-.1,0,0,.2,0c.2,0,.5.1.7.3.2.2.2.4.5.5.3.1.7.1,1.1.2.7.2,1.3.4,1.9.7.7.3,1.4.4,2.1.7,1.4.5,2.7,1.2,3.9,1.9,1.1.7,2.1,1.9,2.8,3,.7,1,.7,2,.9,3,.1.7.2,1.5.2,2.2,0,1.6-.4,3.2-1.4,4.5-.4.5-.7,1-1.3,1.3-.7.4-1.4.7-2.1,1-1.2.6-2.5,1-3.8,1.3-.7.1-1.4.3-2.1.4-.8.1-1.5.1-2.3.1h0ZM226.2,419.5c.1,0,.5-.4.6-.5.2-.1.4-.1.7-.3.3-.3.5-.6.8-.8.3-.2.6-.3.8-.5.4-.2.6-.5.9-.7.2-.2.5-.3.7-.5.2-.2.5-.3.7-.3.4-.1.6-.3,1-.5,0,0,.6-.3.6-.5s0,0-.2,0-.4.2-.8.4c-.5.3-1.1.7-1.8,1.1-.6.4-1.2.8-1.7,1-.7.4-1.3,1-1.9,1.5,0,0-.5.3-.5.5s0,0,0,0h0ZM226.7,418.3c.1,0,.7-.5,1.1-.8.2-.2.4-.3.5-.4.1,0,.7-.3,1.1-.6.3-.2.6-.4.6-.5,0,0,0,0,0,0,0,0-.4.2-.7.4-.4.3-.9.6-1.2.8,0,0-.3.2-.6.4-.3.3-.7.6-.7.7s0,0,0,0h0ZM229.6,443.6c.3,0,1,0,1.6-.2.5-.1,1-.3,1-.4s0,0,0,0c0,0-.2,0-.4,0s-.4,0-.6,0c-.2,0-.4,0-.5,0-.3,0-.7.1-1,.1-.3,0-.6.1-.9.1h0c-.2,0-.4,0-.4.1,0,.1.2.2.4.2.3,0,.6,0,.9,0h0ZM232.2,414.8c.7-.3,1.3-.6,1.3-.8s0,0,0,0c-.2,0-.5.2-.9.4-.4.2-.9.5-1.2.7-.4.3-.8.5-.8.6s0,0,0,0c.2,0,1.1-.6,1.7-.9ZM234.3,429c0,0-.2-.2-.4-.3-.3,0-.6-.2-.7-.2-.2,0-.4-.2-.7-.3-.3,0-.5-.2-.7-.2s-.1,0-.1,0,.3.2.6.3c.3.1.6.2.7.2.2,0,1,.4,1.2.4s.1,0,.1,0ZM233.8,414.6s0,0-.2,0c-.2,0-.5.2-.5.3s0,0,.2,0,.5-.2.5-.3ZM234.1,442.5c.3,0,.8-.3.8-.4s0,0-.1,0c-.1,0-.5.2-.6.2s0,0,0,0c0-.1.2-.2.5-.3.3,0,.6-.1.7-.1.5-.1.9-.4,1.4-.6.5-.3,1.1-.7,1.4-1.1.1-.1.2-.3.2-.3s0-.1-.1-.1-.2,0-.4.1c-.4.3-.7.7-1.1,1-.2.2-.4.2-.6.3-.1,0-.2,0-.4,0s-.2,0-.3,0c-.2,0-.5.2-.7.3-.2,0-.4.2-.6.3-.2.2-.3.3-.4.5,0,.1-.2.2-.2.3s0,0,.1,0c.1,0,.4,0,.5,0ZM238,431.4c0,0,0,0,0,0,0-.1-.3-.4-.4-.4-.2-.2-.5-.5-.8-.6-.1,0-.3-.2-.5-.3-.3-.2-.7-.4-1.1-.6-.2-.1-.5-.2-.6-.2s0,0,0,0c0,.1.5.3.6.4.4.2.7.4,1.1.6.3.2.6.4.9.6.1.1.5.5.7.5h0Z"/>
        <path class="cls-9" d="M247.1,443.1c-.5,0-1-.9-1.2-1.6,0-.3-.1-.6-.3-.6s-.3,0-.4,0c-.1,0-.3-.3-.3-.4,0-.2,0-.4.3-.6.3-.3.4-.6.6-.9.5-.9,1-1.8,1.4-2.7.4-.8.9-1.6,1.3-2.4.5-.9.9-1.9,1.4-2.7.5-.9.9-1.8,1.4-2.7.5-.9,1-1.8,1.5-2.7,1-1.7,2-3.5,3-5.2.5-.9,1-1.8,1.5-2.7.4-.8.9-1.6,1.4-2.4.5-.8.9-1.7,1.3-2.5.4-.7.8-1.4,1.2-2.2.4-.8.7-1.7,1.2-2.6.4-.7.7-1.6,1.5-1.9.1,0,.3,0,.5-.1.2,0,.3-.1.6-.1s.7.1,1,.3c.3.2.3.6.6.8.2.3.4.5.4.8s0,.1,0,.2c-.1.9-.6,1.7-1.1,2.4-.3.4-.6.7-.9,1.1-.3.4-.5.8-.7,1.2-.5.8-.9,1.7-1.4,2.6,0,.1-.4.7-.5.7s0,0,0-.1c0-.3.5-.5.5-.8s0-.2,0-.2c0,0-.1,0-.2.2-.2.3-.3.6-.5.9-.3.4-.4.8-.6,1.1-.3.4-.6.8-.8,1.3-.4.9-1,1.6-1.4,2.4-.2.4-.5.7-.7,1,0,.2-.1.4-.2.6-.1.2-.2.3-.3.6-.2.4-.5.8-.7,1.2-.3.4-.5.9-.7,1.3-.5.9-1,1.8-1.6,2.7-.5.8-.8,1.7-1.4,2.5-.3.4-.5.8-.7,1.2-.2.5-.5.9-.7,1.4-.2.3-.4.7-.6,1,0,0,0,.2,0,.3,0,.1,0,.2.1.2.1,0,.2-.3.3-.4.1-.2.3-.3.5-.4.4-.4.8-.8,1.2-1.2.7-.7,1.4-1.4,2.2-2,.8-.6,1.4-1.3,2.3-1.9.8-.5,1.5-1.1,2.2-1.6.3-.2.6-.3.8-.5.3-.3.6-.5.9-.7.8-.4,1.5-.9,2.3-1.3.5-.2,1.3-.5,1.7-.5s.3,0,.5,0c.2,0,.3,0,.3.2s0,.2,0,.3c0,.2.3.2.4.2.5.2.8.7.8,1.3s0,.4-.1.7c-.3.9-.9,1.7-1.3,2.5-.2.4-.4.9-.7,1.3-.2.5-.5.8-.8,1.2-.1.2,0,.3-.2.5,0,.2-.2.3-.3.5-.3.3-.4.7-.6,1.1,0,.1-.3.3-.3.4,0,.1,0,.2,0,.4-.1.3-.4.6-.6.9-.2.3-.3.7-.5,1-.2.4-.5.7-.7,1.1,0,.1,0,.4-.2.5,0,.1-.2.1-.2.3s0,.2,0,.3c0,.2-.3.4-.3.5,0,.3.2.3.3.3.3,0,.5,0,.9,0,.9-.3,1.8-.7,2.7-1.2,1-.5,1.9-1,2.9-1.5.9-.5,1.7-.9,2.6-1.5.5-.3.9-.6,1.4-.8.4-.2.8-.5,1.3-.7.1,0,.7-.5.9-.5s.1,0,.1,0c0,.1-.4.4-.5.5-.4.2-1.4.7-1.4,1s.1,0,.1.1c0,.1-.2.2-.3.2-.4.2-.8.4-1.1.6-.5.3-1,.6-1.5.9-.3.2-.7.4-1,.6,0,0-.4.2-.6.3-.2.1-.4.3-.4.4s0,0,0,0c.2,0,.6-.3.7-.4.3-.1.7-.2,1-.5,0,0,.4-.4.6-.4s0,0,0,0c0,.2-.5.5-.6.6-.2.2-.5.4-.5.7s0,.2,0,.3,0,.1-.2.2c-.8.6-1.5,1.2-2.3,1.7-.4.3-.8.5-1.2.7-.4.2-.7.5-1,.7-.5.3-1.4.6-2.1.6s-.3,0-.4,0c-.4,0-.9,0-1.2-.2-.4-.2-.6-.5-.9-.9-.2-.3-.4-.5-.5-.9-.1-.4-.3-.7-.5-1.1-.1-.3-.2-.5-.2-.8,0-.7.3-1.4.6-2,.2-.4.4-.8.6-1.2,0-.2.2-.2.3-.3,0,0,.1,0,.1.2,0,.5-.6,1.7-.8,2.5,0,0,0,.3,0,.4s0,.2.1.2c.2,0,.3-.5.3-.6.3-.9.8-1.5,1.2-2.3.2-.4.5-.9.7-1.3.2-.4.5-.9.7-1.3.2-.4.2-.8.4-1.1,0,0,.2-.2.3-.3.1-.2.1-.3.1-.5s0,0,0,0c0,0,0-.3,0-.4s0-.1,0-.1c-.1,0-.1.5-.3.5s-.2,0-.2-.1c0,0,0-.2,0-.2,0-.1,0-.2,0-.4,0,0,0,0,0-.1.1-.4.5-.9.6-1.3,0,0,.5-.6.5-.8s0-.1-.1-.1c-.2,0-.4.2-.6.3-.9.6-1.9,1.3-2.8,2-.7.5-1.4,1.1-2.1,1.7-.8.7-1.6,1.4-2.3,2.2-.7.7-1.4,1.4-2.1,2.1-.8.7-1.6,1.5-2.3,2.3-.3.4-.7.7-1,1.1-.3.4-.5.8-.9,1.1-.2.2-.8.3-.8.5s.4.4.4.7c0,.7-1.1,1-1.6,1h0ZM249.6,436.6c.2-.5.5-.9.7-1.3.2-.5.6-.9.8-1.3.2-.5.5-.9.7-1.4,0-.2.2-.5.3-.7,0-.2.3-.3.3-.4,0-.2,0-.4.2-.6,0-.2.2-.4.4-.6.1-.2.1-.2.2-.4,0-.1.2-.4.3-.5.1-.2.3-.6.5-.7.1-.2.2-.4.3-.6.1-.2.4-.4.5-.7.1-.3.3-.7.5-1,.2-.5.5-1,.8-1.6.1-.2.2-.4.4-.6.2-.3.3-.5.5-.8.1-.2.3-.5.4-.7.2-.2.2-.5.4-.8,0-.1.2-.1.3-.2,0-.1,0-.2.1-.3,0-.3.3-.4.4-.6.1-.2.1-.4.3-.6,0,0,.3-.4.3-.5s0-.2-.1-.2c-.2,0-.7.8-.8,1-.3.6-.6,1.2-1,1.7-.3.5-.7,1.1-1,1.6-.3.6-.6,1.2-.9,1.8-.2.5-.6,1-.9,1.5-.3.6-.6,1.2-.9,1.8-.4.5-.7,1.1-1,1.7-.3.6-.6,1.1-.9,1.7-.6,1.3-1.3,2.5-1.9,3.8,0,0-.3.5-.6.9-.2.3-.4.7-.4.9s0,0,0,0c.3,0,.9-1.1,1-1.2ZM256.5,431.6c.2,0,.5-.4.5-.5s0,0,0,0,0,0-.1,0c-.2,0-.4.3-.4.4,0,0,0,0,0,0h0ZM257.8,430.4c-.2,0-.4.2-.4.3,0,0,0,0,0,0,.1,0,.3-.2.3-.3ZM258,430.3c0,0,.1,0,.2,0,.4-.2.7-.5,1-.7.3-.3.7-.6,1-.9.2-.1.8-.5.8-.7s0,0,0,0c-.1,0-.3.2-.4.3-.2.1-.4.2-.5.4-.4.3-.8.6-1.2.9-.3.2-.9.5-.9.8s0,0,0,0h0ZM258.9,419.4c.2,0,.7-1.1.7-1.1.2-.4.5-.8.7-1.2.1-.2.4-.6.4-.9s0,0,0-.1c-.5.2-1,1.3-1.2,1.8-.2.4-.8,1.1-.8,1.5,0,.1,0,.1.1.1h0ZM260.4,429.6c.4-.3.8-.7.9-.8,0,0,0,0,0,0-.3,0-.9.6-.9.6-.1,0-.8.5-.8.7s0,0,0,0c.1,0,.5-.3.9-.6ZM260.3,438.1c.3-.8.8-1.6,1.2-2.3.4-.7.8-1.4,1.1-2.2,0-.2.7-.8.7-1.2s0-.2-.2-.2c-.2,0-.5.7-.6.9-.3.6-.8,1.2-1.1,1.9-.4.8-1.1,2.2-1.5,3.2-.2.5-.4,1-.4,1.2s0,0,0,0c.3,0,.7-1.1.8-1.2ZM262.6,427c.4-.3.8-.6.8-.7s0,0-.1,0c-.2,0-1,.6-1.2.7-.1,0-.6.4-.6.6s0,.1.1.1.5-.3.9-.6ZM263.4,427.3s0,0,0,0c-.2,0-.5.3-.5.4s0,0,0,0c.1,0,.5-.3.5-.4Z"/>
        <path class="cls-9" d="M288.2,442.4c-.6,0-1.3,0-1.8-.3-.5-.1-.9-.3-1.2-.5-.4-.3-.8-.5-1.2-.8-.4-.3-.6-.6-.7-1s-.5-.8-.8-1.2c-.3-.4-.4-.8-.4-1.2s.2-1.5.2-1.7,0-.3-.2-.3c-.2,0-.6.5-.7.6-.9.8-1.8,1.6-2.7,2.4-.8.7-1.6,1.4-2.4,2.2-.4.4-.8.7-1.3,1-.5.3-1.2.4-1.8.5-.1,0-.3,0-.4,0-.4,0-.7,0-1.1-.2-.5-.1-1.1-.5-1.4-.8-.1-.2-.2-.4-.2-.6,0-.2-.2-.4-.4-.6-.4-.4-.5-.8-.6-1.3,0,0,0-.2,0-.3,0-.1,0-.2.3-.2s0,0,.1,0c.1,0,.2-.4.2-.5,0-.2.2-.4.3-.5,0-.2,0-.3.2-.5,0-.1.3-.2.4-.4,0-.2,0-.3.2-.5.2-.2.2-.4.3-.6.1-.3.3-.5.5-.7.2-.2.4-.3.5-.5.2-.2.4-.4.4-.6,0-.1,0-.3,0-.4s0-.1,0-.2c0-.2.2-.4.3-.5.2-.2.3-.4.4-.6,0,0,0-.1,0-.2,0,0,0-.2,0-.3,0-.3.4-.6.5-.8.1-.2.6-.6.6-.9s-.2-.2-.2-.3.3-.5.4-.6c.6-.9,1.3-1.6,2-2.4.3-.3.5-.6.9-.8.3-.1.6-.2,1-.2s.2,0,.3,0c.2,0,.3,0,.4.2.2.2.2.2.4.3.3.1.6.9.6,1.4,0,1-.9,1.8-1.4,2.5-.7.8-1.4,1.6-2,2.5-.3.4-.6.8-.9,1.2-.3.4-.6.9-.9,1.3-.3.4-.6.8-.9,1.2-.3.5-.5.9-.7,1.4,0,.1-.4.7-.7,1.3-.2.4-.4.9-.4,1.1s0,.2.1.2c.3,0,.6-.2.7-.3.2-.1.4-.3.6-.4.5-.3,1-.7,1.4-1.1.8-.7,1.7-1.4,2.5-2.1.8-.7,1.7-1.5,2.5-2.2.8-.7,1.7-1.5,2.5-2.2.5-.4.9-.7,1.4-1.1.4-.4.9-.7,1.3-1.1.3-.3.6-.7.8-1.1.1-.2.2-.5.4-.7.2-.2.6-.3.9-.4.2,0,.3-.1.5-.1s.1,0,.2,0c.2,0,.4,0,.6.1.1,0,.1.1.1.2,0,0,0,.1,0,.2,0,0,0,.1.3.1.1,0,.3,0,.4,0,0,0,.1,0,.2,0,.2,0,.3.3.4.4.5.2.5.3.7.8,0,.2.1.3.1.4s0,.2,0,.3c0,.2-.2.5-.3.7-.3.6-.6,1.1-.9,1.6-.6.9-1.1,1.9-1.6,2.8-.5,1-.9,2-1.3,3-.2.5-.3.9-.4,1.4,0,.2,0,.3,0,.5s0,.2,0,.3c0,.3.4.3.6.3.5,0,.9-.3,1.4-.4.5-.1,1-.2,1.4-.4.5-.2,1-.4,1.4-.6.6-.3,1.1-.6,1.7-.9,1-.5,1.9-1,2.8-1.6.4-.2.7-.6,1.1-.8.2,0,.4-.2.6-.4.2-.1.4-.3.6-.4.2-.1.4-.3.7-.5.2-.1.4-.2.6-.2s0,0,0,0c0,0,0,.1-.1.2-.2.2-.3.5-.6.5,0,0-.2,0-.3,0,0,0-.1,0-.1.2s.3.2.4.3c.1,0,.2.2.2.2,0,.3-.6.5-.8.7-.4.3-.7.7-1,1,0,0-.2.2-.3.2-.1,0-.2.2-.2.3s.2,0,.2.1-.4.3-.8.5c-.3.1-.6.2-.6.3s0,.1.1.2c0,0,.1,0,.1.1,0,.1-.2.2-.2.3s0,0,0,0c0,0,.3-.1.4-.2.2-.1.4-.3.6-.4.1,0,.4-.4.6-.4s0,0,0,0c0,0,0,.2-.1.3-.2.2-.6.5-.8.7-.5.4-1,.8-1.4,1.2-.5.5-1.2.8-1.8,1.2-.3.2-.6.4-.9.6-.3.1-.7.2-1,.3-.2,0-1.5.3-2.1.3h0ZM278.3,436.1c.3,0,.7-.5,1-.6.5-.5,1.2-.9,1.7-1.3.5-.4,1-.8,1.4-1.3.2-.2.4-.4.7-.6.3-.3.5-.5.5-.8s0,0,0,0c-.1,0-.3.2-.4.2-.2.1-.2,0-.4.1-.2,0-.3.1-.4.2-.2.3-.3.3-.6.5-.3.2-.3.3-.5.6-.2.3-.5.5-.8.6-.1,0-.3.1-.4.3,0,0-.1.2-.2.3-.2.3-.5.5-.8.7-.3.2-.5.4-.7.7,0,0-.1.2-.1.3,0,0,0,0,.1,0h0Z"/>
        <path class="cls-9" d="M310.6,444.5c-.5,0-1-.2-1.4-.4-.5-.3-1-.7-1.2-1.1-.2-.2-.3-.5-.4-.7-.1-.3-.1-.6-.3-.8-.4-.4-.6-.8-.8-1.4-.2-.6-.3-1.3-.4-1.9,0-.3-.1-.7-.1-1s0-.5,0-.7c0-.1.1-.4.1-.6s0-.2-.1-.2c-.2,0-.4.4-.5.5-.4.5-.8,1-1.2,1.5-.4.5-.8,1.1-1.2,1.6-.2.2-.3.5-.5.7-.2.2-.4.4-.6.6-.2.2-.4.4-.6.6-.2.2-.3.5-.5.7-.2.2-.4.3-.6.5-.2.2-.5.4-.7.6-.2.2-.4.3-.7.3s-.7-.3-.9-.4c-.2-.1-.5-.2-.7-.4-.2-.2-.4-.5-.6-.7-.3-.4-.6-.9-.8-1.5-.2-.6-.3-1.3-.3-1.9s0-1.1.3-1.6c.1-.2.3-.4.5-.7.1-.3.2-.6.4-.9.3-.6.6-1.1.9-1.7.3-.6.7-1.1,1.1-1.6.4-.5.8-1.1,1.2-1.6.2-.2.4-.4.5-.6.2-.2.4-.4.6-.6.1-.1.3-.3.3-.5s0-.2-.1-.2c-.1,0-.3.2-.4.2-.2.2-.3.4-.5.6-.2.2-.5.4-.7.6-.2.2-.4.5-.6.7,0,0-.1,0-.2,0,0,0,0,0,0,0,0,0,0,0,0-.2.2-.2.3-.5.4-.7.2-.2.4-.4.6-.6.4-.5.8-1,1.3-1.4.2-.2.4-.4.6-.5.2-.2.5-.3.6-.5.4-.5,1-.7,1.5-1.1.2-.2.4-.4.7-.6.2-.2.5-.3.8-.5.3-.1.7-.3,1-.3s.5,0,.8.2c.3,0,.6.1.9.3.3,0,.5.2.7.4.2.2.3.4.5.6.1.2.2.3.3.3s.1,0,.3-.2c.4-.5.8-1,1.2-1.5.1-.2.3-.3.4-.5.1-.2.4-.4.5-.6.3-.5.6-1.1,1-1.6.3-.5.5-1,.8-1.5.3-.5.7-1,.9-1.5.1-.3.1-.5.3-.7.2-.2.2-.4.2-.6,0-.2.3-.4.4-.6.2-.3.3-.5.5-.8.4-.6.8-1.1,1.2-1.6.4-.5.7-.9,1.1-1.4.1-.2.2-.5.4-.6.2-.1.5-.1.7-.1s.6,0,.8.3c.2.2.2.3.4.4,0,0,.2,0,.2,0,0,0,0,.2.2.2.2.2.4.2.5.5,0,.2,0,.5.1.8,0,.1.1.3.1.4s0,.2-.1.4c0,.2-.2.4-.3.7,0,.1-.1.3-.2.4,0,.1-.2.2-.3.3-.5.4-.9.8-1.2,1.2-1.5,1.9-2.9,4-4.2,6.1-1.3,2.1-2.6,4.2-3.6,6.4-.3.6-.6,1.1-.9,1.7-.3.6-.5,1.1-.7,1.7-.2.6-.5,1.2-.7,1.8,0,.2-.2.4-.2.6-.1.3,0,.6,0,.9,0,.1-.1.3-.2.3,0,0-.1,0-.2.1-.2.2-.1.4-.1.6s0,0,0,0c0,.7,0,1.1,0,1.8s0,1.3.5,1.5c.1,0,.3,0,.4,0,.4,0,.9-.2,1.3-.3.7-.2,1.3-.4,1.9-.6.6-.2,1.2-.4,1.8-.7.3-.1.6-.3.9-.4.3-.1.6-.2.8-.2.3,0,.3-.2.5-.3,0,0,.2,0,.2,0,0,0,0,0,.1-.1,0,0,.1,0,.2,0,.3,0,.5-.1.7-.3.3-.2.7-.3,1-.5,0,0,.4-.2.5-.2s0,0,0,0c0,.1-.7.5-.7.6-.2.2-.3.4-.5.5-.3.1-.5.3-.8.5-.4.4-.9.6-1.4.8-.1,0-.4.2-.4.3s0,.1,0,.2c0,0,0,0,0,0,0,0,0,0,0,.1,0,0-.1.1-.1.2s.1.1.2.1c.2,0,.4-.2.5-.2.2,0,.4-.2.6-.2.6-.2,1.1-.6,1.6-1,.2-.1.7-.6.9-.6,0,0,0,0,0,0,0,0,0,.2-.2.3-.3.4-.8.7-1.1,1-.2.2-.4.3-.5.5-.2.2-.4.4-.7.5-.5.3-1.1.7-1.7,1-.3.1-.4.3-.6.5-.2.2-.5.3-.8.5-.3.2-.5.5-.8.5s-.3,0-.4,0-.5.1-.9.3c-.4.2-.8.4-1.2.4h0ZM298.1,440.2c1,0,2-1.3,2.6-2.1.4-.5.9-1.1,1.3-1.6.2-.2.3-.5.5-.6,0,0,.2-.1.3-.2,0-.1.2-.2.2-.4.1-.2.3-.3.5-.5.2-.3.4-.5.6-.8.4-.5.7-1.1,1.1-1.6.2-.2.3-.5.5-.7,0-.1.2-.2.3-.3,0,0,0,0,.1,0s.1,0,.2,0c0,0,.1,0,.1-.1,0,0,0-.1,0-.2s0-.1,0-.2c.1-.3.3-.5.5-.7.4-.5.6-1,1-1.5.1-.1.2-.2.2-.3s0-.1,0-.2c0,0-.2-.1-.2-.3s.1-.1.1-.3,0-.1-.1-.1-.2,0-.3,0c-.3,0-.5.2-.8.4-.2.1-.5.3-.7.4-.3.2-.5.4-.7.6-.5.3-.8.8-1.3,1.1-.4.4-.9.7-1.3,1.1-.4.4-.7.8-1.1,1.1-.4.4-.8.8-1.1,1.3-.4.6-.7,1.2-1.1,1.8-.2.3-.3.6-.4,1-.1.3-.3.5-.4.7-.4.6-.5,1.4-.7,2,0,.3-.2.7-.2,1s.3.3.3.3h0ZM304.3,435.8s0,0,0,0c-.2,0-.4.3-.4.4s0,0,0,0c.2,0,.4-.3.4-.4ZM306.1,433.4c0-.1,0-.1-.1-.1-.1,0-.6.6-.6.7s0,.1,0,.1c.2,0,.6-.4.6-.7ZM307.4,437.9c0-.1,0-.2,0-.3,0-.1.2-.2.3-.3.2-.4.2-.8.3-1.2.1-.4.2-.8.4-1.2.3-.9.7-1.8,1.1-2.7.3-.7.6-1.3.9-1.9.2-.3.3-.7.5-1,0-.2.2-.4.3-.6,0-.1.3-.4.3-.5s0,0,0,0c-.1,0-.5.5-.5.6,0,.1-.1.3-.2.4-.1.1-.2.2-.3.4,0,.1,0,.3-.1.4,0,.1-.2.2-.3.3-.2.3-.4.7-.6,1-.2.3-.3.6-.4.9,0,.2-.2.3-.2.5-.1.2-.1.3-.2.5,0,.2-.2.4-.2.6,0,.2-.1.4-.2.6-.1.4-.3.8-.4,1.3,0,.3-.2.9-.3,1.4-.1.6-.2,1.1-.2,1.3s0,0,0,0c0,0,.2-.2.2-.3ZM307.7,430.8c0,0,0,0,0,0-.1,0-.3.3-.3.5s0,0,0,.1c.1,0,.4-.4.4-.5ZM318,437.9c-.1,0-.2,0-.2,0,0,0,.3-.3.3-.3.2-.2.5-.3.7-.4.2-.1.5-.2.7-.4,0,0,.3-.3.5-.3s0,0,0,0c0,0,0,.1,0,.2-.2.2-.5.4-.7.5-.2.1-.4.3-.6.4-.3.2-.5.4-.8.4h0Z"/>
        <path class="cls-9" d="M332.6,443.7c-.4,0-1,0-1.5-.2-.6-.2-1.1-.4-1.5-.7-.5-.4-.7-.8-1-1.4-.3-.6-.7-1.1-.9-1.7-.2-.5-.4-1.1-.6-1.6,0-.3-.2-.6-.2-.9,0-.4,0-.7-.2-1.1,0-.2-.1-.3-.2-.3-.1,0-.3.3-.5.5-.4.5-.9,1.1-1.3,1.6-.8,1-1.6,2.1-2.5,3-.4.4-.8.9-1.2,1.3-.5.5-1.1.9-1.8.9s-1-.2-1.5-.4c-.5-.3-.9-.6-1.1-1-.3-.5-.4-1.2-.6-1.8-.1-.5-.3-1-.3-1.5s.2-1.1.4-1.7c.2-.6.5-1.1.8-1.7,0-.2.1-.5.3-.7.1-.1.4,0,.4-.2s-.1-.2-.1-.3c0-.2.4-.3.6-.5.3-.2.5-.5.5-.6s0-.2,0-.3c0-.3.4-.3.4-.6s0-.3.4-.3.2,0,.2-.2,0,0,0-.2c0-.2.1-.4.2-.6.1-.2.3-.3.4-.4,0,0,.1-.2.2-.3,0,0,.2,0,.2-.1.1-.1,0-.2.1-.3,0-.2.4-.5.5-.7.3-.5.8-.7,1.2-1.2.2-.2.3-.4.5-.6.3-.3.6-.6.9-.9.4-.4.9-.7,1.4-1.1.3-.2.5-.4.8-.4s.4,0,.6,0c.3,0,.9-.2,1.3-.2s.3,0,.4,0c.3,0,.6.2.8.4.2.2.4.6.7.6.4,0,.6-.7.8-1,.4-.6.7-1.3,1.1-1.9.4-.6.7-1.1,1.1-1.7.1-.2.3-.4.4-.6.2-.3.3-.6.3-.8s0-.1,0-.3.1-.2.3-.2c.1,0,.3-.1.4-.2.5-.3.8-.9,1-1.4.3-.5.5-1,.8-1.5.1-.2.2-.4.3-.6,0-.2.2-.4.4-.6.1-.2.2-.4.3-.6.2-.3.3-.6.5-.9.3-.6.7-1.3,1.1-1.9.3-.5.4-1,.7-1.4.2-.4.5-.7,1-.9.1,0,.2,0,.3,0,.2,0,.3.2.3.5,0,.4.2.4.3.4s.3,0,.5,0c.4,0,.5.2.5.4s0,.1,0,.2c0,0,0,.2,0,.3,0,.5,0,1.1,0,1.6-.2.6-.5,1.1-.7,1.6-.2.6-.6,1.1-1,1.7-.3.5-.5,1-.8,1.5-.1.2-.3.4-.4.6-.1.3-.3.5-.5.8-.8,1.1-1.4,2.4-2.2,3.6-.8,1.2-1.5,2.4-2.2,3.6-.7,1.2-1.3,2.4-1.9,3.6-.3.6-.6,1.2-.8,1.8-.3.6-.7,1.2-.8,1.8-.1.5-.2,1.1-.3,1.7,0,.3-.1.6-.2.8-.1.3-.4.5-.4.7s.1.3.1.5c0,.6,0,.8,0,1.3s0,1.4.5,1.9c.2.2.6.3.8.3s.7-.1,1-.3c.4-.2.7-.4.9-.6.1-.2.2-.2.3-.2.1,0,.2.1.3.2,0,0,.2.2.3.2.4,0,1-.6,1.3-.8.5-.4,1-.8,1.5-1.2.3-.2.5-.4.7-.6.2-.2.3-.4.5-.6.2-.2.3-.4.5-.5.2-.2.5-.4.7-.5,0,0,.2-.2.3-.2s.1,0,.1.1c0,.2-.5.5-.5.6-.1,0-.7.6-.7.8s0,.1.2.1c.2,0,.6-.4.7-.5,0,0,.2-.2.3-.2,0,0,0,0,0,.1,0,.2-.6.7-.7.8-.3.3-.4.4-.4.8,0,.6-.3,1-.7,1.4-.4.5-.9.9-1.3,1.3-.5.5-1,.9-1.5,1.4-.2.2-.2.5-.3.7,0,.2-.1.4-.3.6-.4.4-1.1.7-1.6.7h0ZM320,438.9c.9-.8,1.6-1.7,2.4-2.6,1-1.2,2-2.6,3.1-4,.6-.9,1.2-1.7,1.8-2.5.3-.5.6-.9.9-1.4.1-.2.8-.7.8-1s0-.2-.2-.2c-.2,0-.4.2-.5.2-.5.4-1.1.6-1.5,1-.9.6-1.9,1.5-2.7,2.5-.8.9-1.6,1.8-2.2,2.7-.7,1-1.5,2-2.1,3-.3.5-.6,1.1-.9,1.6-.3.6-.6,1-.6,1.7s0,.2.1.2c.5,0,1.6-1.1,1.7-1.2ZM326.6,433.6c0-.2,0-.2-.2-.2-.2,0-.6.6-.6.8s0,0,.1,0c.2,0,.7-.4.7-.6ZM328.8,435.6c.2-.9.5-1.7.5-1.8.3-1.1.8-2.2,1.3-3.3.3-.5.5-1.1.8-1.6,0,0,.5-.8.5-1,0,0,0,0,0,0-.2,0-.5.7-.6.8-.2.4-.4.7-.6,1.1-.4.7-.7,1.5-1,2.2-.3.8-.6,1.6-.9,2.4-.2.7-.4,1.9-.4,2.8s0,.2,0,.2c0,0,.2-.9.4-1.8ZM329,430c0-.1.1-.3.1-.4,0,0-.5.5-.5.7,0,0,0,0,0,0s.2-.1.3-.3ZM332,427.5c.2,0,.6-.5.6-.8,0,0,0-.1,0-.1-.1,0-.3.3-.4.5,0,.2-.1.3,0,.4h0ZM334.6,420.7c.2,0,.3-.4.4-.6.1-.2.3-.5.5-.7.1-.2.3-.4.3-.6s0-.2-.1-.2c-.2,0-.5.5-.6.6-.1.1-.3.4-.5.7-.1.2-.2.4-.2.6s0,.3.2.3h0ZM336.4,417.6c0,0,0,0,0,0-.1,0-.3.3-.3.4,0,0,0,0,0,0,.2,0,.3-.2.3-.4ZM337.2,416.3c0,0,0,0,0,0-.1,0-.3.3-.3.4,0,0,0,0,0,0,.2,0,.3-.2.3-.4Z"/>
        <path class="cls-9" d="M349.8,444.1c-.3,0-.5,0-.8-.2-.5-.3-1-.7-1.3-1.2-.3-.6-.5-1.3-.7-2-.2-.5-.4-1.3-.4-1.9s.1-.9.3-1.5c0-.2,0-.5,0-.7,0-.2.3-.4.4-.6.3-.6.4-1.3.6-1.9.1-.3.3-.7.4-1,0-.2.3-.5.3-.8s0-.2-.1-.2c-.1,0-.4.2-.5.3-.5.5-1,.9-1.6,1.3-1.1.9-2,1.8-3,2.8-.9.9-1.9,1.7-2.8,2.7-.4.4-.8.9-1.1,1.3-.3.4-.6.9-1.1,1.2-.2.1-.4.2-.5.2-.7,0-1.2-.8-1.4-1.5,0-.1,0-.5-.3-.5s-.2.2-.3.2c-.3,0-.3-.4-.3-.6,0-.3,0-.6,0-.9,0-.2,0-.4,0-.6s0-.3,0-.4c.1-.3.4-.5.5-.7.3-.5.6-1,.8-1.6.3-.6.7-1.2,1-1.8.4-1.2,1.2-2.2,1.8-3.3.7-1.2,1.4-2.4,2-3.7.7-1.2,1.3-2.4,2-3.6.7-1.3,1.5-2.6,2.2-4,.3-.5.5-1,.7-1.5.1-.2.3-.4.5-.6.2-.3.2-.5.4-.8.3-.5.6-.9.9-1.4.3-.6.6-1.2,1-1.8.6-1.1,1.1-2.2,1.5-3.4.2-.4.3-.9.6-1.4.3-.4.6-.8,1.1-.9.3,0,.5-.2.8-.2s.3,0,.5.2c.2.2.3.3.5.4.3.2.3.4.4.8.1.4.2.6.2.9s0,.3,0,.6c-.2.6-.4,1.1-.7,1.7-.5,1.1-1,2.2-1.6,3.2-.8,1.5-1.7,2.9-2.5,4.3-.8,1.4-1.5,2.7-2.3,4.1-.7,1.2-1.4,2.4-2,3.6-.7,1.2-1.3,2.4-2,3.6-.7,1.2-1.3,2.4-1.9,3.6,0,0-.3.4-.3.5s0,.1,0,.1c.2,0,1.1-1,1.2-1.1,1-1,2.1-1.9,3.2-2.8,1-.8,2-1.7,3-2.4.6-.4,1.2-.9,1.9-.9s.5,0,.8.1c.2,0,.2.1.2.2,0,.1-.3.2-.3.4s.2.2.4.2c.2,0,.3.2.4.4.2.4.5.6.5,1s-.4,1.1-.6,1.6c-.1.3-.4.7-.6,1-.2.4-.2.8-.4,1.2-.3.6-.5,1.2-.8,1.7-.3.6-.6,1.2-.8,1.8-.1.3-.3.6-.4.9,0,.2-.1.3-.2.5,0,.1,0,.3-.2.4,0,0-.4.4-.4.5s.1.1.2.2c.1,0,.2,0,.2.2,0,.2-.2.4-.2.6s0,.2.3.2c.6,0,2-.8,2.2-1,1.1-.7,2.1-1.6,3.1-2.5.4-.4.9-.7,1.2-1.1,0-.2.1-.3.3-.4,0,0,.2,0,.3,0,.1,0,.2,0,.3-.1,0,0,0,0,0-.1s0,0,0,0c0,0,.1-.3.4-.5.5-.4,1-.8,1.4-1.2.3-.3.7-1,1-1s0,0,0,0c0,.1-.2.4-.3.5-.4.5-.7.8-1.2,1.2-.2.1-.7.6-.7.9.2,0,.4-.1.6-.3.2-.2.4-.4.5-.6.2-.2.4-.5.6-.7.2-.2.3-.3.5-.3,0,0,0,0,0,.1,0,.4-.5.8-.8,1.1-.4.4-.9.8-1.3,1.2-.3.3-.7.7-1.2,1-.4.4-.8.7-1.1.9-.2.2-1,.8-1,.9s0,0,0,0c.2,0,1.5-.8,1.7-.9.4-.3.8-.6,1.1-.9.3-.3.6-.5.9-.8.3-.2.5-.5.7-.8.3-.3.5-.6.8-.9,0,0,.2-.2.3-.2s0,0,0,.2c0,.2-.3.5-.4.6-.5.5-1,1-1.5,1.4-.6.6-1.4,1-2,1.5-.3.3-.5.4-.9.7-.1,0-.4.3-.4.5s0,.2.2.2c.3,0,.8-.6,1-.6,0,.2-.2.4-.3.7,0,.3,0,.4-.2.7-.4.5-1,1-1.4,1.5-.5.5-1,1-1.6,1.4-.5.3-1,.6-1.5.8-.3.1-.6.2-.9.2h0ZM337.4,438.3c0-.2,0-.3.2-.5,0,0,.2-.2.3-.3.5-.6.7-1.3,1-2,.2-.6.5-1.3.9-1.8.2-.2.2-.1.3-.4,0-.3.2-.5.3-.7.8-1.2,1.3-2.6,2.1-3.8.4-.6.7-1.1,1-1.8.3-.7.8-1.1,1-1.8.2-.6.6-1,.9-1.6.2-.4.4-.7.6-1.1,0,0,.2-.4.2-.6s0-.1-.1-.1c-.3,0-.6.7-.7.8-.6,1.1-1.3,2.3-2,3.4-.4.6-.7,1.2-1.1,1.8-.4.6-.7,1.2-1,1.9-.3.8-.7,1.5-1.1,2.2-.4.7-.8,1.4-1.1,2.1-.4.8-.8,1.6-1.2,2.3-.3.5-.8,1.5-.8,1.9,0,0,0,.1,0,.1s.1,0,.2-.2ZM339.9,434.8c.1,0,.5-.5.5-.6s0-.1,0-.1c0,0-.4.5-.4.7s0,0,0,0h0ZM341.1,432.8c.1-.3.3-.5.5-.7,0-.1,0-.2,0-.2,0,0,0,0,0,0,0,0-.3.1-.4.3-.2.3-.5,1-.5,1.1s0,.1,0,.1c.1,0,.2-.4.3-.4ZM342.1,431.1c0,0,0-.2,0-.2s-.2.2-.2.3,0,.2,0,.2.2-.2.2-.3ZM342.8,429.7c.2-.3.4-.4.5-.7s.1-.6.3-.9c.1-.2.3-.2.4-.4.2-.2.1-.4.2-.7,0-.3.3-.5.5-.8.2-.2.3-.4.3-.6s0-.1,0-.1c0,0-.2.2-.3.3-.1.2-.3.5-.4.8-.1.4-.3.7-.5,1-.4.5-.7,1-1,1.5-.2.2-.3.5-.4.8-.3.5-.4.6-.4.7s0,.2,0,.2c.2,0,.6-1,.7-1ZM345.7,424.4c0,0,0-.1,0-.1-.2,0-.5.7-.5.9,0,0,0,.1.1.1.2,0,.5-.6.5-.9ZM346.8,431.6c0,0,0-.2-.2-.2s-.7.5-.7.8,0,.1.1.1c.2,0,.9-.5.9-.7ZM346.2,421.6c.2,0,1-1.3,1-1.5s0-.1-.1-.1c-.2,0-.4.4-.5.4,0,.1-.5.7-.5,1s0,.1,0,.1h0ZM347.7,430.9c.3-.3.7-.6.9-.8.2-.2.5-.3.7-.4.2-.1.4-.3.4-.5-.2,0-.4,0-.5,0-.5.2-.8.9-1.2,1.2,0,0-1,.6-1,.8s0,0,0,0c.1,0,.3-.2.6-.4ZM347.5,439.6c.1-.3.2-.7.4-1,0-.2.5-1,.5-1.4s0-.2-.1-.2c-.1,0-.2.4-.3.4s0-.1,0-.2c0-.2.1-.4.2-.6,0-.2.1-.2.2-.2,0,0,0,0,0,0s0,0,.1,0c.2,0,.7-.8.7-1.1s0-.2-.1-.2c-.2,0-.7.8-.7.9-.3.4-.4.9-.6,1.3,0,.2-.1.5-.2.7,0,.2-.1.4-.1.5s0,.2,0,.4c0,.2-.2.6-.2.8s0,.1,0,.1.1-.1.2-.3Z"/>
      </g>
      <g>
        <path class="cls-12" d="M363.1,443.6c0-.5,0-1.1,0-1.7,1.6-.2,2.8-.3,3.5-.5.7-.2,1.1-.5,1.3-1,.2-.5.3-1.4.3-2.6v-24.2c0-1.5,0-2.5-.3-3.1-.2-.6-.6-1-1.3-1.2-.7-.2-1.9-.4-3.5-.5,0-.5,0-1.1,0-1.7.9,0,1.7,0,2.4,0,.7,0,1.4,0,2.1,0s1.5,0,2.5,0c1,0,2.2,0,3.7,0,2.7,0,5.3,0,7.7,0,2.4,0,4.4,0,6,0,1.6,0,2.5,0,2.8,0,.1,1.3.3,2.6.5,4,.2,1.4.4,2.8.7,4.3-.6,0-1.2,0-1.7,0-.4-1-.9-2-1.5-2.8-.6-.8-1.1-1.4-1.7-1.8-.7-.5-1.5-.9-2.4-1.1-.9-.2-2.1-.4-3.4-.4h-6.8v14.2h2.9c1.7,0,2.9-.1,3.8-.3.9-.2,1.5-.7,1.9-1.5s.7-2,1-3.7c.6-.1,1.2-.1,1.8,0,0,1.5,0,2.7,0,3.5,0,.8,0,1.4,0,1.8v8.3c-.4.1-1,.1-1.7,0-.2-1.8-.5-3.2-.9-4-.4-.8-1-1.3-1.8-1.5-.8-.2-2-.3-3.5-.3h-3.3v11.3c0,1.2,0,2.1,0,2.8,0,.7,0,1.2,0,1.4h7.1c1.7,0,3.1-.1,4.2-.4,1.1-.3,1.9-.7,2.6-1.3.5-.4,1.1-1.1,1.7-2,.7-1,1.3-2.1,1.9-3.3.6,0,1.1,0,1.6,0-.3,1.9-.6,3.7-.9,5.3-.2,1.6-.5,2.9-.6,4.1h-5.1c-1.8,0-3.7,0-5.5,0-1.8,0-3.5,0-5,0h-3.6c-1.6,0-3,0-4,0-1,0-1.9,0-2.7,0-.8,0-1.6,0-2.6,0Z"/>
        <path class="cls-12" d="M414.7,444.1c-2.3,0-3.7-1.1-4.3-3.4-2.5,2.4-5,3.5-7.6,3.5s-3.3-.5-4.5-1.6c-1.2-1.1-1.8-2.5-1.8-4.4,0-4.6,4.7-7.5,14-8.6,0-.8,0-1.7,0-2.6,0-.9,0-1.8,0-2.8s-.4-2.2-1.3-2.8c-.9-.7-2-1-3.2-1s-1.7.1-2.3.4c0,.8-.2,1.6-.5,2.4-.3.8-.8,1.5-1.4,2.1-.6.6-1.3.9-2.2.9s-1.4-.2-1.8-.7c-.4-.4-.7-1-.7-1.6s.4-1.6,1.2-2.4c.8-.7,1.8-1.4,3-1.9,1.2-.5,2.5-1,3.8-1.3,1.3-.3,2.5-.5,3.5-.5s2.5.2,3.6.7c1.1.5,2,1.2,2.7,2.1.7.9,1,2.1,1,3.4s0,1.9,0,3.3c0,1.3,0,2.8,0,4.3,0,1.5,0,2.9,0,4.3,0,1.4,0,2.4,0,3.3s.5,1.7,1.5,1.7,1.6-.2,2.9-.6c.1.2.2.4.3.6,0,.2,0,.4.1.6-.9.9-1.8,1.6-2.7,2-1,.4-1.9.6-2.9.6ZM410.4,439.2v-7.8c-3.1.4-5.3,1.1-6.5,2-1.2.9-1.8,2.1-1.8,3.6s.3,2.1,1,2.8c.6.6,1.4,1,2.4,1s1.3-.1,2.1-.4c.8-.3,1.7-.7,2.8-1.1Z"/>
        <path class="cls-12" d="M431.8,444.2c-2.1,0-3.7-.5-4.9-1.5-1.2-1-1.8-2.4-1.8-4.3,0-3.1,0-6,0-8.9,0-2.8,0-5.6.1-8.2h-4c-.1-.5-.1-1,0-1.4,3.4-1.5,6-3.8,7.8-7.1.3,0,.6,0,.8,0,.3,0,.5,0,.7,0,0,.9,0,1.9,0,2.9,0,1,0,2.1,0,3.2h7.9c.1.8.1,1.6,0,2.4h-7.9c0,2.4-.1,5-.1,7.7,0,2.7,0,5.4,0,8.1s1.5,4.2,4.4,4.2,2.4-.3,3.5-1c.3.4.5.9.6,1.6-2,1.5-4.4,2.3-6.9,2.3Z"/>
        <path class="cls-12" d="M443.1,435.3c.5,2.3,1.4,4,2.5,5.2,1.1,1.2,2.6,1.8,4.4,1.8s2.5-.3,3.4-1c.9-.6,1.4-1.7,1.4-3s-.3-1.9-.8-2.5c-.5-.6-1.2-1.2-2.1-1.6-.9-.4-1.9-.9-3-1.3-1.3-.5-2.5-1.1-3.6-1.7-1.1-.6-2-1.4-2.8-2.3-.7-.9-1.1-2.1-1.1-3.6s.4-3,1.3-4.1,2-1.9,3.4-2.5c1.4-.6,2.9-.8,4.5-.8s1.6,0,2.4.2c.8.1,1.2.2,1.3.2.7.1,1.3.2,1.9.2.6,0,.9,0,.9,0h.2c.1,0,.3,0,.5,0,0,1.1,0,2.2,0,3.4,0,1.1.1,2.4.2,3.6h-.2c-.3,0-.6,0-.9,0-.3,0-.5,0-.8,0-.5-1.9-1.1-3.4-2-4.2-.9-.9-2.1-1.3-3.7-1.3s-2.6.3-3.4.9c-.9.6-1.3,1.5-1.3,2.6s.3,1.6.8,2.2c.6.6,1.2,1.1,2,1.4.8.4,1.6.7,2.3,1,1.4.5,2.6,1.1,3.9,1.7,1.2.6,2.2,1.5,3,2.5s1.2,2.4,1.2,4.1-.5,3.3-1.4,4.5c-.9,1.2-2.1,2-3.5,2.6-1.4.5-2.9.8-4.5.8s-1.8,0-2.7-.2c-.9-.1-1.4-.2-1.4-.2s-.4,0-.9-.1c-.5,0-1.1-.1-1.7-.2-.6,0-1.1-.1-1.6-.1,0-1.1,0-2.3-.1-3.6,0-1.3-.2-2.8-.3-4.4h.3c.3,0,.6,0,.8,0,.2,0,.4,0,.7,0Z"/>
      </g>
      <g>
        <path class="cls-11" d="M294.7,472.5c.5,0,.9,0,1.2.1.3,0,.6.2.8.4s.3.4.4.7.1.6.1,1,0,.8-.1,1-.2.5-.5.7-.5.3-.8.4c-.3,0-.7.1-1.2.1h-1v2.5h-.9v-7h1.9ZM294.6,476.3c.3,0,.6,0,.8,0,.2,0,.4-.1.5-.2.1-.1.2-.3.3-.5,0-.2,0-.4,0-.7s0-.5,0-.7-.2-.3-.3-.4c-.1-.1-.3-.2-.5-.2-.2,0-.5,0-.8,0h-1v3h1Z"/>
        <path class="cls-11" d="M304.8,479.5h-.7v-.8c-.2.2-.3.3-.4.4-.1.1-.3.2-.4.3-.2,0-.3.1-.5.1-.2,0-.3,0-.5,0-.4,0-.7,0-.9-.1-.2,0-.4-.2-.6-.4-.1-.2-.2-.3-.3-.6,0-.2,0-.5,0-.7v-3.8h.9v3.4c0,.2,0,.4,0,.6,0,.2,0,.3.2.4,0,.1.2.2.3.3.1,0,.3,0,.5,0s.3,0,.5,0c.2,0,.3,0,.4-.2.1,0,.3-.2.4-.3.1-.1.2-.3.3-.6v-3.7h.9v5.4Z"/>
        <path class="cls-11" d="M311,474.8h-.1c-.2,0-.3,0-.5,0-.2,0-.3,0-.5.2s-.3.2-.4.4c-.1.2-.2.4-.3.6v3.6h-.9v-5.4h.9v1c0-.2.2-.4.3-.6.1-.1.3-.3.4-.3.2,0,.3-.1.5-.2.2,0,.3,0,.5,0h.1v.8Z"/>
        <path class="cls-11" d="M318,476.3c0,0,0,.2,0,.3,0,.1,0,.2,0,.4l-3.7.2c0,.3,0,.6,0,.8,0,.2.2.4.3.5.1.1.3.2.5.3.2,0,.5.1.8.1s.6,0,.9-.1.6-.2.8-.3v.8c-.2,0-.4.2-.7.2s-.7.1-1.1.1-.8,0-1.1-.1c-.3,0-.6-.2-.8-.5-.2-.2-.4-.5-.5-.9-.1-.4-.2-.8-.2-1.4s0-1,.2-1.4c.1-.4.3-.6.5-.9.2-.2.5-.4.8-.5s.7-.1,1-.1.8,0,1.1.2c.3.1.5.3.7.5.2.2.3.5.3.7s0,.5,0,.8ZM317.1,476.3c0-.2,0-.4,0-.6s0-.4-.2-.5c0-.1-.2-.3-.4-.3-.2,0-.4-.1-.7-.1s-.6,0-.8.1-.4.2-.5.4c-.1.2-.2.3-.2.6,0,.2,0,.5,0,.7l2.9-.2Z"/>
        <path class="cls-11" d="M321.5,479.6c-.2,0-.4,0-.5-.1s-.1-.3-.1-.5,0-.4.1-.5.3-.1.5-.1.4,0,.5.1c.1,0,.2.2.2.5s0,.5-.2.5c-.1,0-.3.1-.5.1Z"/>
        <path class="cls-11" d="M330.9,479.5h-.9v-3.4h-3.5v3.4h-.9v-7h.9v2.8h3.5v-2.8h.9v7Z"/>
        <path class="cls-11" d="M338.8,476.3c0,0,0,.2,0,.3,0,.1,0,.2,0,.4l-3.7.2c0,.3,0,.6,0,.8,0,.2.2.4.3.5.1.1.3.2.5.3.2,0,.5.1.8.1s.6,0,.9-.1.6-.2.8-.3v.8c-.2,0-.4.2-.7.2s-.7.1-1.1.1-.8,0-1.1-.1c-.3,0-.6-.2-.8-.5-.2-.2-.4-.5-.5-.9-.1-.4-.2-.8-.2-1.4s0-1,.2-1.4c.1-.4.3-.6.5-.9.2-.2.5-.4.8-.5s.7-.1,1-.1.8,0,1.1.2c.3.1.5.3.7.5.2.2.3.5.3.7s0,.5,0,.8ZM337.9,476.3c0-.2,0-.4,0-.6s0-.4-.2-.5c0-.1-.2-.3-.4-.3-.2,0-.4-.1-.7-.1s-.6,0-.8.1-.4.2-.5.4c-.1.2-.2.3-.2.6,0,.2,0,.5,0,.7l2.9-.2Z"/>
        <path class="cls-11" d="M344.2,474c.4,0,.8,0,1.1.1.3,0,.5.2.7.3s.3.3.3.5c0,.2,0,.4,0,.7v3.9h-.7v-.8c-.2.1-.3.3-.5.4-.1.1-.3.2-.5.3-.2,0-.4.1-.6.2-.2,0-.4,0-.6,0-.7,0-1.1-.1-1.4-.4s-.4-.7-.4-1.2,0-.6.2-.8c.1-.2.3-.4.4-.5s.4-.2.7-.3c.3,0,.6,0,.9,0h1.7v-.5c0-.2,0-.3,0-.4,0-.1-.1-.3-.2-.4s-.2-.2-.4-.2c-.2,0-.4,0-.7,0s-.4,0-.6,0c-.2,0-.4,0-.6,0v-.8c.2,0,.4,0,.6,0,.2,0,.4,0,.6,0ZM342.5,478c0,.3,0,.5.2.7.2.2.4.2.8.2s.9,0,1.2-.3c.3-.2.5-.4.7-.8v-.9h-1.6c-.2,0-.4,0-.6,0-.2,0-.3,0-.4.2-.1,0-.2.2-.2.3,0,.1,0,.3,0,.5Z"/>
        <path class="cls-11" d="M351.1,479.6c-.4,0-.7,0-.9-.3-.2-.2-.3-.5-.3-.9v-6.6h.9v6.3c0,.3,0,.5.1.5,0,0,.2.1.4.1s.1,0,.2,0c0,0,.1,0,.2,0v.7c0,0-.2,0-.3,0s-.2,0-.3,0Z"/>
        <path class="cls-11" d="M356.1,479.6c-.3,0-.6,0-.8,0-.2,0-.4-.1-.5-.3-.1-.1-.2-.3-.3-.5,0-.2,0-.5,0-.9v-3h-.8v-.7h.8v-1.3h.9v1.3h1.3v.7h-1.3v3c0,.2,0,.4,0,.5,0,.1,0,.2.1.3,0,0,.1.1.2.2.1,0,.2,0,.4,0s.2,0,.3,0,.2,0,.3,0v.7c-.1,0-.2,0-.3,0,0,0-.2,0-.3,0Z"/>
        <path class="cls-11" d="M362.2,474c.4,0,.7,0,.9.1.2,0,.4.2.6.4.1.2.2.3.3.6s0,.5,0,.7v3.8h-.9v-3.4c0-.2,0-.4,0-.6,0-.2,0-.3-.2-.4,0-.1-.2-.2-.3-.3-.1,0-.3,0-.5,0s-.3,0-.5,0c-.2,0-.3,0-.5.2-.1,0-.3.2-.4.3-.1.1-.2.3-.3.6v3.7h-.9v-7.6h.9v3c0-.2.2-.3.3-.4.1-.1.3-.2.4-.3.2,0,.3-.1.5-.1.2,0,.3,0,.5,0Z"/>
        <path class="cls-11" d="M367.8,480.7c.2,0,.3-.1.4-.2s.2-.2.3-.4c0-.2.2-.3.2-.6l-2.2-5.4h.9l1.7,4.5h0l1.6-4.5h.9l-2,5.3c-.1.3-.3.6-.4.9-.1.3-.3.5-.5.7s-.4.3-.7.4-.6.2-1,.2v-.7c.2,0,.4,0,.6,0Z"/>
        <path class="cls-11" d="M374.1,479.6c-.2,0-.4,0-.5-.1s-.1-.3-.1-.5,0-.4.1-.5.3-.1.5-.1.4,0,.5.1c.1,0,.2.2.2.5s0,.5-.2.5c-.1,0-.3.1-.5.1Z"/>
        <path class="cls-11" d="M380.7,479.6c-.5,0-1,0-1.4-.2-.4-.1-.7-.3-1-.5s-.5-.6-.6-1.1c-.2-.5-.2-1.1-.2-1.8s0-1.2.2-1.7.4-.8.7-1.1c.3-.3.6-.5,1.1-.6.4-.1.9-.2,1.4-.2s.3,0,.5,0c.2,0,.3,0,.5,0,.2,0,.3,0,.5,0,.1,0,.3,0,.4.1v.8c-.5-.2-1.1-.3-1.8-.3s-.7,0-1,.1-.6.2-.8.4c-.2.2-.4.5-.5.9-.1.4-.2.8-.2,1.4s0,1.1.2,1.4c.1.4.3.6.5.9.2.2.5.3.8.4.3,0,.6.1,1,.1s.4,0,.6,0c.2,0,.4,0,.6-.1v-2.2h-1.4v-.8h2.3v3.6c-.3,0-.6.1-.9.2-.4,0-.7,0-1.2,0Z"/>
        <path class="cls-11" d="M390.5,479.5h-.7v-.8c-.2.2-.3.3-.4.4-.1.1-.3.2-.4.3-.2,0-.3.1-.5.1-.2,0-.3,0-.5,0-.4,0-.7,0-.9-.1-.2,0-.4-.2-.6-.4-.1-.2-.2-.3-.3-.6,0-.2,0-.5,0-.7v-3.8h.9v3.4c0,.2,0,.4,0,.6,0,.2,0,.3.2.4,0,.1.2.2.3.3.1,0,.3,0,.5,0s.3,0,.5,0c.2,0,.3,0,.4-.2.1,0,.3-.2.4-.3.1-.1.2-.3.3-.6v-3.7h.9v5.4Z"/>
        <path class="cls-11" d="M394.5,473.1c-.2,0-.3,0-.4,0,0,0-.1-.2-.1-.4s0-.4.1-.4c0,0,.2,0,.4,0s.3,0,.4,0c0,0,.1.2.1.4s0,.4-.1.4c0,0-.2,0-.4,0ZM394.1,474.1h.9v5.4h-.9v-5.4Z"/>
        <path class="cls-11" d="M399.7,479.6c-.4,0-.7,0-.9-.3-.2-.2-.3-.5-.3-.9v-6.6h.9v6.3c0,.3,0,.5.1.5,0,0,.2.1.4.1s.1,0,.2,0c0,0,.1,0,.2,0v.7c0,0-.2,0-.3,0s-.2,0-.3,0Z"/>
        <path class="cls-11" d="M404.8,479.6c-.3,0-.6,0-.8,0-.2,0-.4-.1-.5-.3-.1-.1-.2-.3-.3-.5,0-.2,0-.5,0-.9v-3h-.8v-.7h.8v-1.3h.9v1.3h1.3v.7h-1.3v3c0,.2,0,.4,0,.5,0,.1,0,.2.1.3,0,0,.1.1.2.2.1,0,.2,0,.4,0s.2,0,.3,0,.2,0,.3,0v.7c-.1,0-.2,0-.3,0,0,0-.2,0-.3,0Z"/>
        <path class="cls-11" d="M410.2,472.5c-.2,0-.3,0-.5,0-.1,0-.2.1-.3.2,0,.1-.1.3-.2.5,0,.2,0,.5,0,.8h1.3v.7h-1.3v4.7h-.9v-4.7h-.9v-.7h.9c0-.5,0-.9.1-1.2,0-.3.2-.5.4-.7.2-.2.4-.3.6-.3.2,0,.5,0,.7,0s.2,0,.3,0c.1,0,.2,0,.3,0v.7c-.2,0-.4,0-.6,0Z"/>
        <path class="cls-11" d="M416.1,474.8h-.1c-.2,0-.3,0-.5,0-.2,0-.3,0-.5.2s-.3.2-.4.4c-.1.2-.2.4-.3.6v3.6h-.9v-5.4h.9v1c0-.2.2-.4.3-.6.1-.1.3-.3.4-.3.2,0,.3-.1.5-.2.2,0,.3,0,.5,0h.1v.8Z"/>
        <path class="cls-11" d="M423.1,476.3c0,0,0,.2,0,.3,0,.1,0,.2,0,.4l-3.7.2c0,.3,0,.6,0,.8,0,.2.2.4.3.5.1.1.3.2.5.3.2,0,.5.1.8.1s.6,0,.9-.1.6-.2.8-.3v.8c-.2,0-.4.2-.7.2s-.7.1-1.1.1-.8,0-1.1-.1c-.3,0-.6-.2-.8-.5-.2-.2-.4-.5-.5-.9-.1-.4-.2-.8-.2-1.4s0-1,.2-1.4c.1-.4.3-.6.5-.9.2-.2.5-.4.8-.5s.7-.1,1-.1.8,0,1.1.2c.3.1.5.3.7.5.2.2.3.5.3.7s0,.5,0,.8ZM422.2,476.3c0-.2,0-.4,0-.6s0-.4-.2-.5c0-.1-.2-.3-.4-.3-.2,0-.4-.1-.7-.1s-.6,0-.8.1-.4.2-.5.4c-.1.2-.2.3-.2.6,0,.2,0,.5,0,.7l2.9-.2Z"/>
        <path class="cls-11" d="M430.6,476.3c0,0,0,.2,0,.3,0,.1,0,.2,0,.4l-3.7.2c0,.3,0,.6,0,.8,0,.2.2.4.3.5.1.1.3.2.5.3.2,0,.5.1.8.1s.6,0,.9-.1.6-.2.8-.3v.8c-.2,0-.4.2-.7.2s-.7.1-1.1.1-.8,0-1.1-.1c-.3,0-.6-.2-.8-.5-.2-.2-.4-.5-.5-.9-.1-.4-.2-.8-.2-1.4s0-1,.2-1.4c.1-.4.3-.6.5-.9.2-.2.5-.4.8-.5s.7-.1,1-.1.8,0,1.1.2c.3.1.5.3.7.5.2.2.3.5.3.7s0,.5,0,.8ZM429.8,476.3c0-.2,0-.4,0-.6s0-.4-.2-.5c0-.1-.2-.3-.4-.3-.2,0-.4-.1-.7-.1s-.6,0-.8.1-.4.2-.5.4c-.1.2-.2.3-.2.6,0,.2,0,.5,0,.7l2.9-.2Z"/>
      </g>
      <path class="cls-12" d="M250.3,464.6c64.7-5.1,141.9-10.4,206.6-14.7,0,0,.2,2,.2,2-24.1,2.3-72.5,6.8-96.5,9-24,2.2-72.5,6.5-96.6,8.5,24.1-2.6,72.4-7.6,96.4-10,24-2.4,72.5-7.1,96.5-9.5,0,0,.2,2,.2,2-64.8,4.2-142,9.2-206.8,12.7h0Z"/>
      <g>
        <path class="cls-10" d="M292,420.7c-.3-.1.3-2.3,1.2-4.4,1.2-2.7,2.7-4.4,3.1-4.9.7-.8,2-2.1,4-3.2.5-.2,1.9-1,4-1.4,1.7-.3,3.2-.3,4.2-.2,0,.6,0,1.3-.2,2.2-.3,2.1-.9,3.7-1,4-.2.6-1,2.4-2.6,4.3-1.7,2-3.5,3.1-3.9,3.4-1.8,1.1-3.4,1.5-4.2,1.7-1.4.3-2.6.4-3.6.4.7-1.5,1.5-2.7,2.1-3.7.3-.5,1.4-2.1,3.2-3.9.7-.7,1.7-1.7,3.1-2.7.9-.7,1.7-1.1,2.3-1.5-.5,0-1.2.3-2.1.6-1.6.6-2.6,1.4-3.6,2.1-1.9,1.5-3.1,2.9-3.5,3.4-1.7,2.1-2.3,3.8-2.5,3.7Z"/>
        <path class="cls-6" d="M290.4,416.6c-1.3-1.1-2.5-1.9-3.3-2.4-1.3-.8-2.7-1.5-4.7-1.9-1.3-.2-2.4-.1-3.1,0,1.2.3,2.3.7,3.1,1,2.4,1,4.2,2.1,5.3,2.9,1,.7,1.9,1.4,2.5,2-.2.1-.5.3-.9.4-1,.3-1.8.4-2.3.4-3.3,0-5.7-1-5.7-1-2.2-1-3.5-2.4-4.3-3.4-1.4-1.6-2.2-3.1-2.6-4.2.6-.3,1.5-.6,2.6-.8.7-.1,2.6-.4,4.9.1.4.1,2.3.6,4.2,2,2.3,1.6,3.6,3.7,4.3,4.9Z"/>
        <path class="cls-7" d="M291.3,413.5c0-1,0-2.2.2-3.6.4-2.2,1.1-3.9,1.7-5.1-.5.5-1.1,1.3-1.6,2.2-1.3,2.4-1.4,4.7-1.3,5.9-.3-.8-1-2.9-.5-5.5.5-2.5,1.9-4.1,2.3-4.4.9-.9,1.8-1.5,2.4-1.8.4.7,1,2.1,1.1,3.9.2,2.6-.8,4.5-1.1,5.1-1,1.9-2.5,3-3.3,3.4Z"/>
      </g>
    </g>
  </g>
</svg>