<?xml version="1.0" encoding="UTF-8"?>
<svg xmlns="http://www.w3.org/2000/svg" version="1.1" viewBox="0 0 720 720">
  <defs>
    <style>
      .cls-1 {
        fill: #62a544;
      }

      .cls-2 {
        fill: #9ccb3b;
      }

      .cls-3 {
        fill: #2b5234;
      }

      .cls-4 {
        fill: #4e7d3a;
      }

      .cls-5 {
        fill: #020303;
      }

      .cls-6 {
        fill: #f6c91c;
      }
    </style>
  </defs>
  <!-- Generator: Adobe Illustrator 28.7.1, SVG Export Plug-In . SVG Version: 1.2.0 Build 142)  -->
  <g>
    <g id="SHUDDH_EATS">
      <g>
        <path class="cls-3" d="M141.4,370.2c-1.3,0-2.6-.1-3.9-.3-.7,0-1.6,0-2.4-.3-.5-.1-1-.3-1.3-.6-.5-.4-.6-.6-1.2-.9-.5-.2-1.1-.3-1.6-.5-1.3-.5-2.4-1.3-3.4-2.2-1.9-1.7-3.6-4.5-3.6-7.1s1.5-4.4,3.7-5.6c.4-.2,2.2-1.1,3-1.1.2,0,.4,0,.4.3s-.5.4-.7.5c-.3.2-.7.3-.9.5-.2.2-.3.5-.5.7-.4.4-1.1.4-1.1,1.2s.1.6.2.9c.3,1.4.8,1.9,1.9,2.9,1,.8,2,1.4,3.1,1.9.5.2,1.1.5,1.7.6.6,0,1.1,0,1.6.2,1.1.5,1.9,1.2,3.3,1.2s1-.1,1.7-.1.9,0,1.3,0c1.3,0,2.7-.5,4-.7.3,0,1.2-.3,1.7-.3s.5,0,.5.2,0,.1,0,.2c-.2.3-1.4.5-1.8.6-.7.2-1.3.4-2,.5,0,0-2.1.6-3.2.6s-1.7,0-2.5,0c-.3,0-.7,0-1,0-.3,0-.5,0-.7,0-.3,0-.5,0-1,.3-.2.1-.5.1-.8.1-.7,0-1.4-.2-1.9-.2-.8,0-2.6.2-2.6.7s1.1.6,1.5.6c.7,0,1.2.3,2,.4.8.2,1.5.2,2.3.2s1.7,0,2.5,0,1.2,0,1.7,0c.6,0,1.1,0,1.7-.1.7-.1,1.2-.4,1.9-.5.6,0,1.2,0,1.8-.3.6-.2,1.1-.6,1.7-.8.3,0,.6,0,1-.2.4,0,.7-.2.9-.6.2-.4,0-.6.4-.8.3-.3,1.3-.6,1.7-.8.7-.3,1-.8,1.4-1.3.3-.4.7-.8,1.2-1.1.5-.3,1.2-.7,1.7-.7s.8.2,1.1.2.3,0,.5-.2c.3-.2.4-.3.4-.4,0-.1,0-.3,0-.5,0-.6.7-1.1,1.2-1.5.5-.4,1.1-.7,1.6-1.1.4-.4.6-.9.8-1.4.4-.9.6-1.9.6-2.8s0-.9-.2-1.4c-.3-1.3-.7-2.2-1.7-3.1-.4-.4-.5-.8-.9-1.2-.4-.5-1.2-.8-1.8-1.1-2.6-1.3-5.2-2.7-8-3.5-1.5-.5-3-.9-4.5-1.4-.8-.2-1.5-.5-2.3-.7-.4-.1-2-.4-2.3-.9-.3-.4,0-.7-.3-.9-.2-.1-.4-.2-.6-.2-.5,0-1,0-1.3-.2-.7-.3-1.5-.5-2.2-.9-.7-.3-1.4-.7-1.9-1.1-.9-.7-2-1.9-2.4-2.9-.1-.3,0-.5-.2-.8-.1-.3-.3-.6-.5-.8-.4-.7-.7-1.3-.7-2.1s.3-1.3.3-1.9-.2-1-.2-1.2.4-1.2.9-2.1c.5-.7.7-1.6,1.2-2.4.4-.5.8-.8,1.2-1.1.5-.4.8-1,1.3-1.4,1-1,2.3-1.8,3.4-2.7,3-2.4,6.5-4.3,10-6.1,2.1-1,4.2-1.9,6.3-2.8,1.8-.8,3.6-1.5,5.4-2.1,1.3-.5,2.7-1,4-1.5.9-.4,1.8-.7,2.8-1,.9-.3,1.7-.5,2.6-.7.6-.2,1.2-.2,1.8-.4.3-.1.6-.4,1-.4s.4,0,.7,0c.3-.1.5-.4.7-.5.2-.2.4-.4.8-.5,0,0,.4,0,.7-.1.4,0,.8-.2.8-.4s-.4-.4-.8-.4c-.6,0-1.4.2-1.7.3-.8.1-1.5.5-2.3.6-1.7.3-3.3.7-5,1.2-.4.1-3.7,1.6-4.5,1.6s-.3,0-.3-.1c0-.7,6.4-2.6,7-2.7,2.8-.7,5.6-1.5,8.4-1.8.7,0,1.2-.1,1.8-.4.3-.1.5-.3.8-.3s.1,0,.2,0c.4.2.9,1,1.2,1.3.5.4,1.2.7,1.8,1,.4.2.8.4,1.2.4s.1,0,.2,0c.4,0,.7-.2.9-.2s.4,0,.8.3c.4.2.6.5.9.8.2.2.3.3.5.4.2,0,.4,0,.6.2.8.6,1.3,2.2,1.6,3,.3,1,.5,2,.5,3.1s0,.8-.1,1.2c-.2,1.3-.6,2.6-.9,3.9-.3,1.3-1.1,2.5-1.9,3.6-.6.8-1.3,1.3-2,2-.4.5-.7.9-1.3,1.2-.5.3-1.1.4-1.6.8-1,.8-2,1.7-3,2.6-.9.8-1.8,1.6-2.8,2.3-1,.7-2.1,1.7-3.3,2.1-.6.2-1.2.2-1.8.3-.4.1-.7.2-1.1.2-1.1,0-2.1-1-2.5-2.5-.2-.7-.3-1.3-.4-2,0-.3-.1-.5-.1-.7s.2-.3.4-.3.6.4,1,.4c.3,0,.5-.2.7-.3.5-.3,1.1-.5,1.6-.7,1.1-.6,2.1-1.7,3.1-2.5,2.1-1.8,4.2-3.6,6.1-5.6.9-.9,1.7-1.9,2.5-2.9,1-1.2,2.4-2.5,2.4-4.1s0-.2-.2-.2c-.2,0-.7.2-1.3.4-.5.1-1,.2-1.6.2-1.3,0-2.7-.3-3.9-.3-2.5,0-5.1.6-7.4,1.3-2.7.8-5.4,1.5-8,2.4-2.5.9-5.1,1.7-7.6,2.8-2.6,1.2-5.1,2.5-7.7,3.8-2.3,1.2-4.8,2.5-6.7,4.4-.8.8-1.6,1.5-2.4,2.2-1,.9-1.9,1.8-2.7,2.8-.5.7-1.1,1.4-1.1,2.1s0,.6.3.9c.4.6,2,2.1,2.8,2.1s.4-.2.7-.2.2,0,.3,0c.4.1,1,.3,1.3.5.4.3.3.7.9.9.6.2,1.4.2,2.1.4,1.3.3,2.5.9,3.7,1.3,1.3.5,2.7.9,4.1,1.4,2.6,1,5.1,2.2,7.5,3.7,2.2,1.4,4,3.6,5.4,5.7,1.3,1.9,1.4,3.8,1.8,5.8.3,1.4.4,2.8.4,4.3,0,3.1-.7,6.2-2.8,8.6-.8.9-1.4,1.9-2.5,2.6-1.3.8-2.7,1.3-4,2-2.4,1.1-4.7,1.9-7.3,2.4-1.3.3-2.6.6-4,.7-1.5.2-2.9.2-4.4.2h0ZM137.2,320.9c.2,0,.9-.8,1.1-.9.4-.2.8-.3,1.3-.6.6-.5.9-1.2,1.6-1.5.5-.3,1.1-.6,1.6-.9.7-.4,1.2-.9,1.8-1.4.4-.4.9-.6,1.4-.9.4-.3.9-.5,1.4-.7.7-.2,1.2-.6,1.9-.9.1,0,1.1-.7,1.1-.9s0-.2-.3-.2-.8.3-1.6.8c-1,.5-2.2,1.3-3.4,2.1-1.2.7-2.3,1.5-3.2,2-1.4.8-2.4,1.9-3.7,2.9-.2.1-.9.6-.9.9s0,.1.1.1h0ZM138.2,318.5c.3,0,1.3-1,2.1-1.6.4-.3.7-.6.9-.7.2-.1,1.3-.6,2.1-1.2.6-.4,1.1-.8,1.1-1,0,0,0-.1,0-.1-.2,0-.7.3-1.4.8-.8.5-1.7,1.1-2.3,1.6,0,0-.6.4-1.1.8-.7.5-1.4,1.1-1.4,1.4s0,0,0,0h0ZM143.8,367.2c.7,0,1.9-.2,3-.4,1.1-.2,1.9-.5,1.9-.8s0,0-.1-.1c-.2,0-.4-.1-.7-.1s-.7,0-1.1,0c-.4,0-.7,0-1,.1-.6,0-1.3.2-1.9.3-.6,0-1.1.3-1.7.3h-.2c-.4,0-.8,0-.8.2,0,.2.4.3.7.3.6,0,1.2.2,1.7.2h0ZM148.8,311.8c1.3-.7,2.5-1.2,2.5-1.4s0-.1-.2,0c-.3,0-1,.3-1.8.7-.8.4-1.7.9-2.4,1.4-.8.5-1.6,1-1.6,1.2s0,0,.1,0c.4,0,2.1-1.1,3.3-1.8ZM152.7,339c0-.2-.4-.3-.8-.5-.5-.2-1.1-.4-1.4-.5-.3-.2-.8-.4-1.3-.5-.5-.2-1-.3-1.3-.3s-.2,0-.2.2.6.4,1.2.6c.6.2,1.2.4,1.3.4.4.1,2,.7,2.4.7s.2,0,.2,0ZM151.8,311.5c0,0,0-.1-.3-.1-.4,0-.9.3-.9.6s0,.2.3.2.9-.4.9-.6ZM152.4,365c.5-.2,1.6-.6,1.6-.8s-.1-.2-.3-.2c-.3,0-.9.4-1.2.4s-.1,0-.1,0c0-.2.5-.4,1-.5.6-.1,1.2-.2,1.3-.2.9-.2,1.8-.7,2.6-1.2.9-.5,2.1-1.3,2.7-2.1.2-.3.3-.5.3-.6s0-.2-.3-.2-.4,0-.7.3c-.8.6-1.3,1.3-2.1,1.9-.4.3-.7.5-1.1.5-.2,0-.5,0-.8,0s-.4,0-.6.2c-.4.2-.9.4-1.3.6-.4.2-.8.4-1.1.6-.4.3-.5.6-.8,1-.2.2-.4.4-.4.6s0,0,.2,0c.3,0,.7,0,.9-.2ZM159.8,343.7c.1,0,.2,0,.2-.1,0-.2-.6-.8-.7-.9-.5-.4-.9-.9-1.5-1.2-.2-.1-.6-.4-.9-.6-.6-.4-1.4-.8-2.1-1.2-.5-.2-.9-.4-1.1-.4s0,0,0,.1c0,.3.9.6,1.1.8.7.4,1.4.8,2.1,1.2.6.4,1.2.8,1.7,1.2.3.2,1,1,1.4,1h0Z"/>
        <path class="cls-3" d="M177.3,366.2c-.9,0-2-1.7-2.4-3.2-.1-.6-.2-1.2-.7-1.2s-.6,0-.7,0c-.3,0-.6-.6-.6-.8,0-.5,0-.7.5-1.1.5-.5.8-1.1,1.2-1.8.9-1.7,1.9-3.4,2.7-5.2.7-1.6,1.7-3.1,2.4-4.7.9-1.8,1.8-3.6,2.8-5.3,1-1.7,1.7-3.5,2.7-5.1,1-1.7,1.9-3.4,2.9-5.1,1.9-3.3,3.9-6.6,5.7-10,.9-1.8,1.9-3.5,2.8-5.3.8-1.6,1.7-3.1,2.6-4.6.9-1.5,1.6-3.2,2.5-4.8.8-1.4,1.5-2.8,2.2-4.2.8-1.6,1.4-3.3,2.3-4.9.7-1.3,1.4-3.1,2.9-3.7.3-.1.6-.1.9-.2.4-.2.7-.3,1.1-.3s1.4.3,1.9.6c.6.4.6,1.1,1.1,1.6.4.6.7,1,.7,1.6s0,.2,0,.4c-.2,1.7-1.2,3.3-2.2,4.7-.5.7-1.2,1.3-1.7,2.1-.5.7-.9,1.6-1.3,2.4-.9,1.6-1.7,3.3-2.6,4.9-.1.2-.7,1.3-1,1.3s-.1-.2-.1-.2c0-.5.9-1,.9-1.6s0-.3-.1-.3c-.1,0-.3.1-.4.4-.3.6-.6,1.1-1,1.7-.5.7-.8,1.5-1.2,2.2-.5.8-1.1,1.5-1.4,2.4-.7,1.7-1.9,3-2.7,4.6-.3.7-1,1.3-1.3,1.9-.2.4-.2.7-.4,1.1-.2.4-.4.7-.5,1.1-.3.8-.9,1.5-1.4,2.2-.5.8-1,1.7-1.4,2.5-1,1.8-1.9,3.5-3.1,5.2-1,1.5-1.6,3.3-2.6,4.8-.5.8-.9,1.5-1.3,2.4-.3.9-1,1.7-1.4,2.6-.3.7-.9,1.3-1.2,1.9,0,.1-.1.4-.1.6,0,.3,0,.5.2.5.3,0,.3-.5.5-.8.2-.3.6-.5.9-.8.8-.7,1.5-1.5,2.3-2.3,1.4-1.3,2.7-2.6,4.2-3.9,1.5-1.2,2.8-2.6,4.4-3.7,1.5-1,2.8-2.1,4.3-3.2.5-.4,1.1-.6,1.5-1,.5-.6,1.1-.9,1.8-1.3,1.4-.8,2.8-1.7,4.3-2.5.9-.5,2.5-.9,3.3-.9s.6,0,.9,0c.3,0,.5,0,.5.4s-.1.3-.1.5c0,.3.6.3.8.4,1,.4,1.5,1.4,1.5,2.5s0,.9-.2,1.2c-.6,1.7-1.7,3.2-2.5,4.9-.4.8-.9,1.7-1.3,2.5-.5.9-.9,1.6-1.5,2.4-.3.4-.2.6-.3,1-.1.4-.3.6-.6.9-.5.6-.8,1.4-1.2,2.1-.2.3-.5.5-.6.8-.1.2,0,.5-.2.7-.2.6-.7,1.1-1.1,1.7-.4.6-.6,1.3-.9,1.9-.4.7-1,1.3-1.3,2-.2.3-.2.7-.3.9-.1.2-.4.2-.4.5s0,.4,0,.6c0,.3-.5.7-.5,1,0,.5.4.6.6.6.6,0,1,0,1.7-.2,1.8-.5,3.5-1.4,5.1-2.2,1.8-1,3.7-1.9,5.6-2.9,1.7-.9,3.4-1.8,4.9-2.8.9-.6,1.8-1.1,2.7-1.6.8-.4,1.6-.9,2.4-1.3.3-.1,1.4-1,1.7-1s.2,0,.2,0c0,.2-.8.7-1,.9-.7.4-2.6,1.4-2.6,1.9s.3,0,.3.2c0,.2-.4.4-.6.5-.7.4-1.5.8-2.2,1.2-1,.6-1.9,1.2-2.8,1.8-.6.4-1.3.8-1.9,1.2-.1,0-.7.3-1.2.6-.4.2-.8.5-.8.7s0,.1.2.1c.4,0,1.2-.6,1.4-.7.5-.2,1.3-.4,2-.9.1,0,.8-.7,1.1-.7s.1,0,.1.1c0,.3-.9,1-1.1,1.1-.3.4-1,.9-1,1.4s.2.5.2.6,0,.3-.4.5c-1.5,1.1-2.9,2.3-4.4,3.3-.8.5-1.6,1-2.4,1.4-.7.4-1.3.9-2,1.3-1,.6-2.7,1.1-4.1,1.1s-.5,0-.8,0c-.8-.1-1.7,0-2.4-.4-.8-.4-1.2-1-1.7-1.8-.4-.5-.7-1-.9-1.6-.2-.8-.5-1.3-.9-2.1-.2-.5-.3-1-.3-1.5,0-1.3.7-2.6,1.2-3.8.3-.8.7-1.5,1.1-2.2.2-.3.4-.5.5-.5.1,0,.2.1.2.4,0,.9-1.1,3.3-1.5,4.9,0,.1-.2.5-.2.8s0,.3.3.3c.3,0,.6-1,.6-1.2.5-1.7,1.5-3,2.3-4.5.4-.9.9-1.7,1.3-2.5.5-.8.9-1.7,1.4-2.5.4-.7.5-1.5.8-2.2,0-.2.4-.3.5-.5.2-.4.2-.6.2-.9s0-.1,0-.2c0-.1.1-.6.1-.8s0-.2-.2-.2c-.3,0-.3,1-.6,1s-.3,0-.3-.2c0-.2.2-.3.2-.5,0-.3,0-.5,0-.7,0,0,0-.1,0-.2.2-.8.9-1.7,1.2-2.4,0-.2.9-1.2.9-1.6s0-.3-.2-.3c-.3,0-.8.4-1.1.6-1.8,1.2-3.6,2.5-5.3,3.8-1.4,1.1-2.8,2.1-4.1,3.3-1.6,1.3-3,2.8-4.5,4.2-1.4,1.4-2.7,2.7-4.1,4.1-1.5,1.4-3,2.9-4.4,4.4-.6.7-1.3,1.4-1.9,2.1-.6.7-1,1.6-1.7,2.2-.4.3-1.5.5-1.5,1s.7.8.7,1.3c0,1.3-2.2,1.9-3.1,1.9h0ZM182.1,353.7c.3-1,.9-1.7,1.4-2.6.4-.9,1.1-1.7,1.5-2.6.4-.9.9-1.7,1.3-2.6.2-.4.3-.9.6-1.3.2-.3.5-.5.7-.8.2-.3.2-.8.3-1.1.2-.4.5-.7.8-1.1.2-.3.2-.3.3-.7,0-.3.4-.7.6-1,.2-.4.7-1.1.9-1.4.3-.4.4-.7.6-1.1.2-.5.7-.8.9-1.3.3-.7.6-1.3.9-2,.5-1,1-2,1.5-3,.2-.4.5-.8.7-1.2.3-.5.6-1,.9-1.5.2-.5.5-.9.8-1.3.3-.5.4-1.1.7-1.5.1-.2.4-.2.5-.4.2-.2.1-.3.2-.6.2-.5.5-.7.8-1.2.2-.4.3-.7.5-1.1.1-.2.6-.7.6-1s-.1-.3-.2-.3c-.5,0-1.3,1.6-1.4,1.9-.6,1.1-1.2,2.2-1.9,3.3-.6,1-1.3,2-1.9,3.1-.6,1.1-1.2,2.3-1.8,3.4-.5,1-1.2,1.8-1.7,2.9-.5,1.1-1.1,2.3-1.8,3.4-.7,1-1.3,2.1-2,3.2-.6,1.1-1.2,2.2-1.7,3.3-1.2,2.5-2.5,4.8-3.7,7.2,0,.2-.6,1-1.1,1.7-.4.7-.7,1.3-.7,1.6s0,.2.1.2c.5,0,1.8-2,1.9-2.4ZM195.3,344c.4,0,1-.7,1-.9s0-.1-.2-.1-.2,0-.3,0c-.3.1-.7.6-.7.8,0,0,0,.1.2.1h0ZM197.8,341.8c-.3,0-.8.4-.8.5,0,0,0,.1.1.1.2,0,.6-.4.6-.6ZM198.2,341.6c.1,0,.3,0,.4-.1.7-.4,1.4-.9,2-1.4.6-.6,1.3-1.1,1.9-1.7.3-.2,1.5-1,1.5-1.3s0-.2-.2-.2c-.3,0-.5.5-.8.7-.3.3-.7.4-1,.7-.7.6-1.5,1.1-2.2,1.7-.6.5-1.8,1-1.8,1.5s0,.1.1.1h0ZM200,320.6c.4,0,1.4-2.1,1.4-2.1.4-.8.9-1.6,1.3-2.4.2-.5.8-1.1.8-1.7s0-.2,0-.2c-1,.3-1.8,2.6-2.3,3.4-.4.8-1.5,2.2-1.5,2.8,0,.2.1.3.2.3h0ZM202.8,340.3c.8-.6,1.6-1.3,1.7-1.5,0,0-.1,0-.2,0-.6,0-1.6,1.1-1.7,1.2-.2.2-1.6,1-1.6,1.3s0,.1.1.1c.3,0,1-.5,1.8-1.1ZM202.6,356.6c.7-1.5,1.5-3,2.3-4.4.8-1.4,1.5-2.8,2.2-4.2.2-.3,1.3-1.6,1.3-2.3s-.1-.4-.3-.4c-.3,0-1,1.4-1.1,1.7-.7,1.2-1.5,2.3-2.1,3.6-.7,1.6-2.1,4.1-3,6.1-.5,1-.8,2-.8,2.2s0,.2.1.2c.5,0,1.4-2.1,1.5-2.4ZM207,335.4c.8-.6,1.6-1.1,1.6-1.4s0-.1-.2-.1c-.4,0-1.9,1.1-2.3,1.3-.2.2-1.2.8-1.2,1.1s.1.3.3.3,1-.6,1.8-1.2ZM208.6,335.8c0,0,0-.1-.2-.1-.3,0-.9.7-.9.8s0,0,0,0c.2,0,1-.6,1-.8Z"/>
        <path class="cls-3" d="M256.2,364.8c-1.1,0-2.4-.2-3.5-.5-1-.2-1.8-.6-2.4-.9-.8-.5-1.5-1-2.3-1.6-.7-.5-1.1-1.2-1.4-2s-1-1.5-1.6-2.2c-.5-.7-.8-1.5-.8-2.4s.3-2.9.3-3.3-.1-.6-.3-.6c-.4,0-1.2.9-1.4,1.1-1.7,1.6-3.4,3.1-5.1,4.6-1.6,1.4-3.1,2.7-4.7,4.1-.8.7-1.6,1.4-2.5,1.9-1,.6-2.4.7-3.5.9-.3,0-.5,0-.8,0-.7,0-1.4-.2-2.1-.4-.9-.3-2.2-.9-2.7-1.6-.3-.3-.3-.7-.5-1.1-.2-.4-.4-.8-.7-1.1-.7-.8-1-1.5-1.2-2.5,0-.2-.1-.4,0-.6,0-.2.1-.4.5-.4s.2,0,.2,0c.2-.2.3-.8.4-1,.1-.4.5-.7.6-1,.1-.4.1-.7.3-1,.2-.3.6-.4.7-.7.2-.3,0-.6.3-.9.4-.4.5-.7.7-1.1.2-.5.6-.9,1-1.3.3-.3.7-.6,1-.9.3-.4.7-.7.8-1.2,0-.3,0-.6,0-.8s0-.3,0-.4c.1-.4.4-.7.6-1.1.3-.4.6-.7.8-1.1,0-.1,0-.2,0-.3,0-.2-.1-.4-.1-.6,0-.5.7-1.1,1-1.5.2-.3,1.1-1.2,1.1-1.8s-.5-.4-.5-.7.7-1,.8-1.1c1.1-1.7,2.5-3.1,3.8-4.6.5-.6,1-1.2,1.8-1.5.6-.3,1.2-.4,1.9-.4s.4,0,.6,0c.5,0,.5.1.8.4.3.3.4.3.8.5.6.3,1.2,1.7,1.2,2.7,0,1.9-1.7,3.5-2.8,4.8-1.3,1.6-2.7,3.1-3.8,4.8-.5.8-1.2,1.5-1.8,2.3-.6.8-1.2,1.7-1.8,2.6-.6.8-1.2,1.5-1.7,2.4-.5.9-1,1.8-1.4,2.7-.1.3-.8,1.4-1.4,2.5-.4.9-.8,1.7-.8,2.2s0,.3.2.3c.5,0,1.1-.4,1.3-.5.4-.2.8-.5,1.2-.8,1-.6,1.9-1.3,2.8-2,1.6-1.3,3.2-2.7,4.7-4.1,1.6-1.4,3.2-2.9,4.8-4.3,1.6-1.4,3.2-2.8,4.9-4.2.9-.7,1.8-1.4,2.6-2.1.8-.7,1.7-1.3,2.4-2.1.6-.6,1.1-1.4,1.5-2.2.2-.4.4-1,.7-1.3.4-.4,1.2-.5,1.7-.7.4-.1.6-.2.9-.2s.3,0,.4,0c.3.1.8.1,1.1.3.2.1.3.2.3.4,0,.1,0,.3,0,.4,0,.2,0,.3.5.2.3,0,.5,0,.7,0,.1,0,.3,0,.4.1.3.2.5.5.9.7.9.5,1,.7,1.3,1.6.1.3.2.6.2.8s0,.3-.1.5c-.2.4-.4.9-.6,1.3-.5,1.1-1.2,2.1-1.8,3.1-1.1,1.8-2.2,3.6-3.2,5.4-1,1.8-1.7,3.8-2.4,5.8-.3.9-.5,1.8-.7,2.7,0,.3-.1.6-.1.9s0,.3,0,.5c.1.5.8.6,1.1.6.9,0,1.7-.5,2.6-.7,1-.2,1.9-.4,2.7-.8.9-.5,1.8-.7,2.7-1.2,1.1-.5,2.1-1.1,3.2-1.6,1.9-1,3.7-1.9,5.4-3.1.7-.5,1.3-1.2,2.1-1.6.4-.2.8-.5,1.2-.8.4-.3.7-.6,1.1-.8.4-.2.8-.7,1.3-1,.3-.2.7-.4,1.1-.4s.2,0,.2,0c0,0-.1.2-.3.4-.3.4-.6.9-1.1.9-.2,0-.3,0-.5,0-.1,0-.2,0-.2.3s.6.4.8.6c.2.2.3.3.3.4,0,.5-1.1,1-1.5,1.3-.7.5-1.3,1.3-2,1.9-.2.1-.4.3-.6.5-.2.2-.4.4-.4.6s.4,0,.4.3-.7.6-1.5.9c-.6.2-1.2.5-1.2.6s.1.2.3.3c.1,0,.3.1.3.3,0,.3-.3.4-.3.6s0,.1.1.1c.2,0,.6-.3.7-.3.4-.2.7-.5,1.1-.8.3-.2.7-.8,1.1-.8s.2,0,.2.2c0,.1-.1.3-.2.5-.5.5-1.1.9-1.6,1.3-.9.7-1.9,1.5-2.7,2.3-1,.9-2.3,1.5-3.4,2.3-.5.4-1.1.8-1.7,1.1-.6.2-1.3.4-1.9.6-.3,0-2.9.6-4,.6h0ZM237.1,352.7c.5,0,1.4-.9,1.8-1.2,1-.9,2.2-1.6,3.3-2.5,1-.7,1.9-1.6,2.7-2.5.4-.4.8-.8,1.3-1.2.6-.5,1-1,1-1.5s0-.1-.2-.1c-.2,0-.5.3-.7.4-.3.2-.4.2-.7.3-.4.1-.6.3-.8.5-.4.6-.6.7-1.2,1.1-.5.3-.6.7-1,1.2-.3.5-1,.9-1.6,1.2-.2.2-.6.3-.8.5-.2.2-.2.4-.3.6-.4.5-1,.9-1.6,1.4-.5.4-1.1.8-1.4,1.3-.1.2-.2.4-.2.5,0,.1,0,.2.2.2h0Z"/>
        <path class="cls-3" d="M299.1,368.9c-.9,0-1.9-.3-2.7-.8-.9-.5-1.8-1.3-2.4-2.2-.3-.4-.6-.9-.8-1.4-.2-.5-.3-1.1-.6-1.5-.7-.8-1.2-1.6-1.5-2.6-.4-1.2-.5-2.4-.8-3.6-.1-.6-.3-1.3-.3-1.9s.1-.9.2-1.3c0-.2.2-.8.2-1.2s0-.4-.2-.4c-.3,0-.8.8-1,1-.8,1-1.5,2-2.3,2.9-.8,1-1.6,2.1-2.4,3.1-.3.5-.6,1-1,1.4-.3.4-.8.7-1.2,1.1-.4.4-.8.8-1.1,1.2-.4.4-.6.9-1.1,1.3-.4.4-.8.6-1.2.9-.5.4-.9.8-1.4,1.1-.4.3-.8.6-1.3.6s-1.3-.5-1.8-.8c-.5-.3-.9-.4-1.3-.8-.4-.4-.8-1-1.2-1.4-.6-.7-1.1-1.7-1.5-2.8-.3-1.2-.5-2.5-.5-3.7s0-2.1.6-3.1c.3-.5.7-.8.9-1.3.2-.6.4-1.2.7-1.8.5-1.1,1.1-2.2,1.7-3.2.7-1.1,1.4-2.1,2.1-3.1.7-1,1.5-2,2.4-3,.3-.4.7-.7,1-1.1.4-.5.7-.7,1.1-1.1.2-.2.6-.6.6-1s0-.3-.2-.3c-.2,0-.5.3-.7.5-.4.4-.6.8-1,1.1-.4.4-.9.8-1.3,1.2-.4.4-.8.9-1.2,1.3-.1.1-.3.2-.4.2,0,0-.1,0-.1-.1,0,0,0-.2.1-.3.3-.5.6-1,.9-1.4.3-.4.8-.8,1.1-1.2.9-.9,1.6-1.9,2.5-2.8.4-.4.7-.7,1.1-1.1.4-.4.9-.6,1.2-1,.7-.9,1.9-1.4,2.9-2.1.5-.3.8-.7,1.3-1.1.5-.4,1-.6,1.6-.9.6-.3,1.3-.6,2-.6s1,.2,1.5.3c.6.2,1.2.3,1.8.5.5.2,1,.4,1.4.8.4.3.6.7.9,1.1.2.3.4.6.6.6s.3-.1.5-.3c.8-.9,1.6-1.9,2.4-2.9.3-.4.6-.6.8-1,.2-.5.7-.8,1-1.2.6-1,1.2-2.1,1.9-3.1.6-.9.9-2,1.5-2.9.6-.9,1.3-1.9,1.7-3,.2-.5.2-.9.5-1.3.3-.4.3-.7.4-1.2.1-.4.5-.7.8-1.1.3-.5.6-1,.9-1.6.7-1.1,1.5-2.1,2.3-3.2.7-.9,1.4-1.8,2-2.7.3-.4.4-.9.8-1.1.3-.2.9-.2,1.4-.2s1.1,0,1.6.6c.3.3.4.6.8.8.2,0,.3,0,.5.2.2.1.2.3.3.5.3.3.8.4,1,.9.2.5.1,1,.2,1.5,0,.2.3.5.3.7s-.1.5-.2.7c-.2.5-.4.8-.6,1.3-.1.2-.2.5-.4.7-.2.2-.4.3-.6.5-.9.7-1.7,1.5-2.4,2.4-2.9,3.7-5.6,7.7-8.1,11.7-2.5,4-4.9,8-7,12.2-.5,1.1-1.2,2.1-1.7,3.2-.5,1.1-.9,2.1-1.3,3.2-.4,1.2-1,2.3-1.3,3.5-.1.4-.3.8-.5,1.2-.2.6.1,1.1,0,1.7,0,.2-.2.5-.3.7-.1.1-.3.1-.4.3-.4.4-.2.7-.2,1.2s0,.1,0,.2c-.1,1.3-.1,2.1-.1,3.4s0,2.5.9,2.8c.2,0,.5.1.8.1.8,0,1.8-.3,2.5-.5,1.3-.3,2.5-.7,3.7-1.2,1.1-.4,2.3-.8,3.4-1.3.5-.2,1.1-.5,1.7-.7.5-.2,1.1-.4,1.6-.4.5,0,.6-.3,1-.5.1,0,.3,0,.4-.1.1,0,.1-.2.2-.2.1,0,.3,0,.4,0,.5,0,1-.3,1.4-.5.6-.3,1.2-.6,1.9-.9,0,0,.8-.5,1-.5s.1,0,.1,0c0,.3-1.2.9-1.4,1.1-.4.3-.5.7-1,1-.5.3-1,.5-1.5.9-.8.7-1.8,1.1-2.7,1.5-.2,0-.7.3-.7.5s.1.2.1.3c0,0,0,.2,0,.2,0,0,0,.1-.2.2-.1,0-.2.2-.2.3s.2.2.3.2c.3,0,.7-.4,1-.4.5-.1.8-.3,1.2-.5,1.1-.3,2.1-1.2,3-1.8.4-.3,1.3-1.1,1.6-1.1,0,0,0,0,.1,0,0,.1-.1.4-.3.6-.7.7-1.5,1.3-2.1,2-.4.4-.7.7-1,1-.4.4-.8.8-1.3,1.1-1.1.7-2.1,1.3-3.2,1.9-.5.3-.8.6-1.2.9-.4.4-1,.7-1.5,1-.5.3-1,1-1.6,1s-.5-.2-.8-.2-1,.3-1.7.6c-.8.3-1.6.7-2.3.7h0ZM275.2,360.6c2,0,3.8-2.5,5.1-4,.9-1,1.7-2.1,2.5-3.1.3-.4.6-.9.9-1.2.2-.2.4-.2.6-.4.2-.2.3-.5.5-.7.3-.4.6-.7.9-1,.4-.5.7-1,1.1-1.5.7-1,1.4-2,2.1-3,.3-.5.6-.9.9-1.4.1-.2.3-.4.5-.6,0,0,.1-.2.3-.2s.2,0,.3,0c.1,0,.2-.1.2-.2,0,0,0-.2,0-.4s0-.2.1-.4c.3-.5.6-1,1-1.4.7-.9,1.2-2,2-2.8.2-.3.4-.4.4-.7s0-.2-.1-.3c-.1-.2-.4-.2-.4-.5s.2-.2.2-.6,0-.2-.2-.2-.4,0-.6.2c-.5.2-1,.5-1.5.7-.5.3-.9.5-1.4.8-.5.3-.9.8-1.4,1.1-.9.6-1.6,1.4-2.5,2.2-.8.7-1.7,1.3-2.4,2.1-.7.7-1.3,1.5-2.1,2.1-.8.7-1.6,1.6-2.1,2.5-.7,1.1-1.4,2.3-2,3.4-.3.6-.6,1.2-.8,1.9-.2.5-.5.9-.8,1.4-.7,1.1-1,2.6-1.3,3.9-.2.7-.4,1.3-.4,2s.5.5.6.5h0ZM287.1,352.2c0,0,0-.1,0-.1-.3,0-.8.6-.8.7s0,.1.1.1c.3,0,.7-.5.8-.8ZM290.6,347.6c0-.2,0-.3-.2-.3-.3,0-1.2,1.1-1.2,1.4s0,.2.2.2c.4,0,1.2-.8,1.2-1.3ZM293,356.2c0-.2,0-.4,0-.6,0-.3.4-.4.5-.6.3-.7.4-1.6.6-2.3.2-.8.4-1.6.7-2.3.6-1.8,1.3-3.5,2.1-5.2.6-1.3,1.2-2.5,1.8-3.7.3-.6.6-1.3.9-1.9.2-.4.3-.7.5-1.1.1-.3.5-.7.5-1.1s0-.2,0-.2c-.3,0-.9.9-1,1.1-.2.2-.2.5-.4.7-.2.3-.4.4-.5.7,0,.2,0,.5-.2.7-.2.2-.4.4-.5.7-.4.7-.8,1.3-1.2,2-.3.6-.6,1.2-.8,1.8-.1.3-.3.7-.5,1-.2.4-.2.6-.3,1-.1.4-.4.7-.5,1.1-.1.4-.2.8-.3,1.2-.2.8-.6,1.6-.8,2.4-.2.6-.4,1.7-.5,2.6-.2,1.1-.3,2.2-.3,2.5s0,.2,0,.2c.1,0,.4-.3.4-.5ZM293.6,342.5c0-.1,0-.2-.2-.2-.2,0-.6.6-.6.9s0,.2,0,.2c.2,0,.8-.7.8-1ZM313.3,356.3c-.2,0-.3,0-.3-.1,0-.2.5-.5.6-.6.5-.3.9-.6,1.4-.8.5-.3,1-.5,1.4-.8.2-.1.6-.6.9-.6s.1,0,.1.1c0,.1-.1.3-.2.3-.3.3-.9.7-1.4,1-.4.3-.8.5-1.2.7-.6.4-1,.7-1.5.7h0Z"/>
        <path class="cls-3" d="M341.4,367.3c-.8,0-1.8-.1-2.8-.4-1.1-.3-2.2-.7-2.9-1.3-.9-.7-1.4-1.6-1.9-2.6-.6-1.1-1.3-2-1.8-3.2-.4-1-.9-2.1-1.2-3.2-.2-.6-.3-1.2-.4-1.8-.1-.7-.2-1.4-.3-2.1,0-.4-.2-.6-.4-.6-.3,0-.6.6-.9,1-.8,1-1.7,2.1-2.5,3.1-1.6,2-3.1,4-4.8,5.8-.7.8-1.5,1.7-2.3,2.4-1,.9-2.2,1.6-3.5,1.6s-2-.3-2.9-.8c-.9-.5-1.6-1.1-2.1-1.9-.6-1-.8-2.3-1.1-3.4-.2-1-.5-1.9-.5-2.8s.4-2.1.9-3.3c.4-1.1,1-2.2,1.5-3.3.2-.4.3-1,.6-1.3.2-.2.7-.2.7-.5s-.2-.3-.2-.6c0-.4.7-.6,1.1-.9.5-.4,1-.9,1-1.2s-.2-.4-.2-.6c0-.5.7-.5.7-1.2s0-.5.7-.5.4-.1.4-.3-.2-.2-.2-.5c0-.3.2-.8.4-1.1.2-.4.5-.5.8-.8.2-.2.2-.5.4-.6,0,0,.3-.2.4-.3.2-.2,0-.3.2-.6.2-.4.7-.9,1-1.3.6-1,1.6-1.4,2.3-2.2.3-.4.5-.8.9-1.2.6-.6,1.2-1.1,1.7-1.6.8-.8,1.7-1.4,2.6-2.1.5-.3.9-.7,1.6-.7s.8,0,1.2,0c.5,0,1.8-.4,2.5-.4s.6,0,.9.1c.6.2,1.1.5,1.6.8.4.3.9,1.1,1.3,1.1.7,0,1.2-1.3,1.6-1.8.7-1.2,1.4-2.4,2.1-3.6.7-1.1,1.4-2.2,2-3.3.2-.3.5-.7.8-1.2.3-.6.7-1.1.7-1.4s-.2-.3-.2-.6.2-.3.5-.4c.3-.1.6-.3.7-.4.9-.7,1.5-1.7,2-2.7.5-1,.9-2,1.5-2.9.3-.4.5-.8.6-1.2.2-.5.5-.7.7-1.1.2-.4.3-.8.6-1.2.3-.5.6-1.1.9-1.6.7-1.2,1.4-2.4,2.2-3.6.5-.9.8-1.9,1.3-2.8.4-.7.9-1.4,1.8-1.7.2,0,.4-.1.6-.1.4,0,.6.3.6.9.1.7.3.8.6.8s.6,0,.9,0c.7,0,.9.3.9.9s0,.3,0,.4c0,.2,0,.4,0,.6,0,1,.1,2.1-.2,3-.4,1.1-1,2-1.3,3.1-.4,1.2-1.1,2.2-1.9,3.2-.7.9-1,1.9-1.6,2.9-.3.4-.6.7-.8,1.1-.3.6-.6,1-.9,1.5-1.5,2.2-2.7,4.6-4.1,6.8-1.5,2.3-2.9,4.6-4.2,7-1.3,2.3-2.4,4.6-3.6,6.9-.6,1.1-1.1,2.3-1.6,3.4-.5,1.2-1.2,2.2-1.6,3.5-.3,1-.4,2.1-.6,3.2-.1.5-.2,1.1-.4,1.6-.2.6-.7,1-.7,1.4s.2.6.2.9c0,1.1-.2,1.5-.2,2.6s0,2.7.9,3.6c.5.5,1.1.7,1.6.7s1.3-.2,2-.5c.7-.3,1.3-.8,1.6-1.2.2-.3.4-.4.6-.4.2,0,.4.2.6.5.2.2.3.4.6.4.8,0,2-1.2,2.5-1.6,1-.8,1.9-1.5,2.9-2.3.5-.4.9-.8,1.3-1.2.3-.4.6-.8,1-1.2.3-.3.7-.7,1.1-1,.4-.4.9-.7,1.4-1,.2-.1.4-.3.6-.3s.2,0,.2.2c0,.3-.9.9-1,1.1-.2.2-1.4,1.1-1.4,1.6s.2.3.3.3c.5,0,1.2-.7,1.4-.9.2-.2.4-.4.6-.4.1,0,.2,0,.2.3,0,.5-1.1,1.3-1.4,1.5-.5.5-.7.8-.8,1.5-.2,1.1-.5,1.9-1.3,2.7-.8.9-1.7,1.7-2.6,2.5-1,.9-2,1.7-2.8,2.8-.3.4-.4.9-.6,1.3-.1.4-.3.8-.6,1.1-.8.8-2,1.3-3.1,1.3h0ZM317.2,358c1.7-1.5,3.1-3.3,4.5-5,1.9-2.3,3.9-5,5.9-7.7,1.2-1.6,2.4-3.3,3.4-4.7.6-.9,1.2-1.8,1.8-2.7.2-.4,1.5-1.4,1.5-1.8s-.1-.5-.3-.5c-.3,0-.7.3-.9.4-.9.7-2,1.2-3,1.8-1.8,1.2-3.6,2.9-5.3,4.7-1.6,1.7-3,3.5-4.3,5.1-1.4,1.9-2.8,3.8-4,5.8-.6,1-1.2,2.1-1.7,3.2-.5,1.1-1.2,1.9-1.2,3.3s.1.3.3.3c1,0,3-2.1,3.2-2.3ZM330,347.9c0-.3-.1-.4-.3-.4-.3,0-1.2,1.1-1.2,1.5s.1.2.3.2c.4,0,1.3-.9,1.3-1.2ZM334.1,351.7c.4-1.7.9-3.3.9-3.4.7-2.1,1.5-4.2,2.5-6.3.5-1,.9-2.1,1.5-3,0,0,.9-1.5,1-2,0-.1,0-.2-.1-.2-.4,0-.9,1.3-1.1,1.5-.4.7-.8,1.4-1.2,2.1-.8,1.4-1.4,2.8-2,4.3-.6,1.5-1.2,3-1.7,4.6-.4,1.4-.8,3.6-.8,5.4s0,.4.1.5c0,0,.4-1.7.9-3.5ZM334.5,341.1c.2-.3.3-.5.2-.8-.2,0-1,.9-1,1.2,0,0,0,.1.1.1s.4-.3.6-.6ZM340.3,336.2c.4,0,1.1-1,1.1-1.5,0-.1,0-.2-.2-.2-.2,0-.6.5-.8,1-.1.3-.2.6-.2.8h0ZM345.3,323.2c.3,0,.6-.8.8-1.2.2-.4.7-.9,1-1.4.3-.4.5-.8.5-1.1s0-.4-.2-.4c-.3,0-1,.9-1.1,1.1-.2.3-.6.8-.9,1.4-.2.4-.4.8-.4,1.2s.1.5.4.5h0ZM348.8,317.1c0-.1,0-.2,0-.2-.2,0-.6.5-.6.8,0,0,0,.1.1.1.3,0,.6-.5.6-.7ZM350.2,314.8c0-.1,0-.2,0-.2-.2,0-.6.5-.6.8,0,0,0,.1.1.1.3,0,.6-.5.6-.7Z"/>
        <path class="cls-3" d="M374.5,368.1c-.5,0-1-.1-1.6-.4-1-.5-1.9-1.4-2.5-2.4-.6-1.2-.9-2.5-1.4-3.8-.4-1-.8-2.5-.8-3.6s.3-1.7.7-2.9c.1-.4,0-.9.2-1.3.2-.4.5-.7.7-1.1.5-1.1.8-2.4,1.2-3.6.2-.7.5-1.3.8-1.9.2-.4.7-1,.7-1.5s0-.3-.2-.3c-.3,0-.8.5-1,.7-1,.9-2,1.8-3,2.6-2.1,1.7-3.9,3.6-5.7,5.4-1.8,1.8-3.7,3.3-5.4,5.2-.7.8-1.5,1.7-2.2,2.6-.6.9-1.2,1.8-2.1,2.4-.3.2-.7.4-1,.4-1.3,0-2.3-1.6-2.6-2.8,0-.2,0-1-.5-1s-.4.4-.5.4c-.5,0-.6-.7-.6-1.1,0-.6,0-1.2-.2-1.8,0-.4-.1-.8-.1-1.1s0-.5.1-.7c.2-.5.7-1,1-1.4.7-1,1.1-2,1.5-3.1.5-1.2,1.4-2.3,1.8-3.5.9-2.3,2.2-4.3,3.4-6.4,1.3-2.4,2.6-4.7,3.9-7.1,1.3-2.3,2.6-4.7,3.9-7,1.4-2.5,2.8-5.1,4.2-7.6.5-1,.9-2,1.4-2.9.2-.5.7-.8.9-1.2.3-.5.5-1.1.7-1.6.5-.9,1.2-1.7,1.7-2.7.6-1.2,1.2-2.3,1.9-3.5,1.1-2.1,2.1-4.2,2.9-6.4.3-.8.6-1.8,1.1-2.6.5-.8,1.2-1.4,2.1-1.7.6-.1,1-.4,1.4-.4s.6.1.9.4c.3.3.6.6,1,.8.6.4.6.8.8,1.5.2.7.4,1.2.4,1.8s0,.7-.2,1.1c-.3,1.1-.8,2.2-1.3,3.3-.9,2.1-1.9,4.1-3,6.1-1.5,2.8-3.2,5.6-4.8,8.3-1.5,2.6-2.9,5.2-4.4,7.9-1.3,2.3-2.6,4.6-3.9,7-1.3,2.3-2.6,4.6-3.8,6.9-1.2,2.3-2.5,4.6-3.7,6.9,0,.1-.5.7-.5,1s0,.2,0,.2c.5,0,2.1-1.9,2.3-2.2,2-1.9,4-3.7,6.1-5.5,1.9-1.5,3.8-3.2,5.7-4.6,1.1-.8,2.3-1.7,3.7-1.7s.9.1,1.4.3c.4.1.5.2.5.3,0,.2-.6.4-.6.7s.4.3.8.4c.5.1.5.3.8.9.4.7.9,1.1.9,1.9s-.7,2-1.2,3.1c-.3.7-.8,1.3-1.1,2-.3.7-.4,1.5-.7,2.2-.5,1.1-1,2.2-1.5,3.3-.5,1.2-1.1,2.3-1.6,3.5-.3.6-.5,1.2-.8,1.8-.1.3-.2.7-.3,1,0,.3-.2.6-.3.8,0,.2-.7.7-.7,1s.2.2.4.3c.2,0,.4.1.4.3,0,.3-.4.7-.4,1.2s.2.4.5.4c1.1,0,3.8-1.6,4.2-1.9,2.1-1.4,4.1-3,5.9-4.8.7-.7,1.7-1.3,2.3-2.1.2-.3.2-.5.5-.7.2-.1.4-.1.7-.2.2,0,.5,0,.6-.2.1-.1.1-.2.1-.2s0-.1,0-.2c0-.2.3-.6.7-.9.9-.7,1.8-1.5,2.7-2.4.5-.5,1.3-2,2-2s.1,0,.1,0c0,.2-.4.8-.6,1-.7.9-1.3,1.6-2.2,2.2-.4.3-1.4,1.2-1.4,1.7.4,0,.7-.2,1.1-.6.4-.4.8-.9,1-1.1.3-.4.8-.9,1.2-1.3.3-.3.6-.6.9-.7,0,0,0,.1,0,.2,0,.8-1,1.6-1.4,2-.8.8-1.7,1.6-2.6,2.3-.6.5-1.4,1.3-2.3,2-.8.7-1.6,1.4-2.2,1.8-.4.3-2,1.5-2,1.8s0,0,0,0c.3,0,2.9-1.5,3.2-1.7.7-.5,1.4-1.1,2.1-1.6.6-.5,1.2-1,1.8-1.6.5-.5.9-1,1.4-1.5.5-.6,1-1.2,1.6-1.7.2-.1.4-.4.6-.4s.2,0,.2.3c0,.4-.6,1-.8,1.2-.9.9-1.9,1.9-2.9,2.8-1.2,1.1-2.6,1.8-3.8,2.9-.6.5-1.1.8-1.7,1.3-.2.2-.7.6-.7,1s.2.5.4.5c.6,0,1.5-1.1,1.9-1.1,0,.5-.4.8-.5,1.3-.1.6,0,.9-.3,1.4-.8,1-1.8,1.9-2.7,2.8-.9,1-2,1.9-3.2,2.7-.9.6-1.9,1.1-2.9,1.5-.6.2-1.2.3-1.7.3h0ZM350.6,357c.2-.3.1-.6.4-.9.1-.2.4-.4.5-.5.9-1.1,1.4-2.6,1.9-3.9.4-1.1.9-2.5,1.7-3.4.4-.4.4-.3.6-.7.2-.5.4-.9.7-1.4,1.4-2.4,2.5-5,4-7.4.7-1.1,1.3-2.2,1.8-3.4.5-1.3,1.6-2.2,2-3.5.3-1.1,1.2-2,1.7-3,.4-.7.8-1.3,1.1-2,0-.2.4-.7.4-1.1s0-.3-.3-.3c-.5,0-1.1,1.3-1.3,1.6-1.2,2.2-2.5,4.4-3.8,6.6-.7,1.2-1.4,2.3-2.1,3.5-.7,1.2-1.4,2.4-1.9,3.6-.6,1.5-1.4,2.9-2.2,4.2-.7,1.3-1.5,2.7-2.2,4-.8,1.5-1.5,3-2.3,4.5-.5.9-1.5,2.9-1.5,3.6,0,.2,0,.3.2.3s.3-.1.4-.3ZM355.5,350.2c.3,0,.9-.9.9-1.1s0-.3-.1-.3c-.2,0-.9,1-.9,1.3s0,.1.1.1h0ZM357.7,346.3c.2-.6.6-.9.9-1.4.1-.2.2-.4.2-.5,0,0,0,0,0,0-.2,0-.5.2-.7.5-.4.5-.9,1.8-.9,2.1s0,.2.1.2c.2,0,.5-.7.5-.9ZM359.6,343.2c0-.1,0-.4-.2-.4s-.4.3-.4.5,0,.4.2.4.4-.4.4-.6ZM361,340.5c.3-.5.7-.9.9-1.4s.3-1.2.5-1.7c.2-.5.5-.5.9-.8.5-.4.3-.8.5-1.3.2-.5.6-1,1-1.5.3-.4.6-.8.6-1.1s0-.2-.1-.2c-.2,0-.5.4-.6.5-.3.4-.5.9-.7,1.5-.3.7-.5,1.4-.9,1.8-.8.9-1.3,1.9-1.9,3-.3.5-.5,1-.8,1.5-.5.9-.7,1.1-.7,1.4s0,.3.2.3c.4,0,1.2-1.9,1.3-2ZM366.7,330.2c0-.2,0-.3-.2-.3-.3,0-1,1.3-1,1.7,0,.1,0,.2.2.2.4,0,.9-1.2.9-1.7ZM368.6,344.1c0-.2-.1-.3-.4-.3s-1.4,1-1.4,1.5,0,.2.2.2c.4,0,1.7-.9,1.7-1.4ZM367.6,324.9c.4,0,1.9-2.5,1.9-2.8s0-.2-.2-.2c-.3,0-.8.7-.9.9-.2.3-1,1.3-1,1.9s0,.3.1.3h0ZM370.5,342.8c.6-.5,1.3-1.2,1.7-1.6.4-.3.9-.5,1.4-.8.4-.2.7-.5.8-1-.4,0-.7,0-1,.1-.9.4-1.5,1.7-2.3,2.3-.2.1-1.9,1.1-1.9,1.5s0,.2.2.2c.2,0,.6-.3,1.1-.7ZM370,359.5c.3-.6.5-1.3.7-2,.2-.5.9-2,.9-2.8s0-.4-.2-.4c-.2,0-.4.7-.5.7s-.1-.2-.1-.3c0-.3.2-.8.3-1.1.1-.3.2-.4.3-.4,0,0,0,0,.2,0s.1,0,.3,0c.3-.1,1.3-1.5,1.3-2.1s0-.3-.2-.3c-.5,0-1.3,1.6-1.4,1.8-.5.8-.8,1.6-1.1,2.5-.1.4-.3.9-.4,1.3-.2.5-.2.7-.2,1s0,.4,0,.7c0,.4-.3,1.2-.3,1.6s0,.2.2.2.2-.3.3-.5Z"/>
      </g>
      <g>
        <path class="cls-6" d="M400,367.2c-.1-1-.1-2.1,0-3.2,3.1-.3,5.4-.7,6.7-1,1.3-.3,2.2-1,2.5-2,.3-1,.5-2.7.5-5v-46.5c0-2.8-.2-4.8-.5-6-.3-1.2-1.2-2-2.5-2.4-1.4-.4-3.6-.7-6.7-.9-.1-1-.1-2.1,0-3.2,1.7,0,3.2,0,4.5,0,1.3,0,2.6,0,4,0s2.9,0,4.8,0c1.9,0,4.2,0,7.1,0,5.3,0,10.2,0,14.8,0,4.6,0,8.4,0,11.5,0,3.1,0,4.9,0,5.4,0,.3,2.5.6,5,.9,7.6.4,2.6.8,5.4,1.2,8.3-1.1.1-2.2.1-3.3,0-.8-2-1.7-3.8-2.8-5.3-1.1-1.5-2.2-2.7-3.3-3.5-1.3-.9-2.8-1.6-4.5-2.1-1.8-.5-4-.7-6.6-.7h-13.1v27.3h5.5c3.2,0,5.6-.2,7.3-.6,1.7-.4,2.9-1.4,3.7-2.9s1.4-3.9,1.9-7.2c1.2-.2,2.3-.2,3.4,0,0,2.9-.1,5.2-.1,6.8,0,1.6,0,2.7,0,3.5v2.8l.2,13.2c-1,.2-2.1.2-3.4,0-.4-3.5-1-6.1-1.8-7.6-.8-1.5-2-2.5-3.5-2.9-1.6-.4-3.8-.6-6.6-.6h-6.4v21.7c0,2.3,0,4.1,0,5.5,0,1.4,0,2.2.2,2.7h13.7c3.3,0,6-.3,8-.9,2-.6,3.7-1.4,5-2.5.9-.7,2-2,3.3-3.8,1.3-1.8,2.5-4,3.6-6.4,1.1-.1,2.1-.1,3.1,0-.7,3.7-1.2,7.1-1.7,10.1-.5,3-.9,5.6-1.2,7.8h-9.8c-3.5,0-7.1,0-10.6,0-3.5,0-6.8,0-9.7,0h-7c-3.1,0-5.7,0-7.6,0-2,0-3.7,0-5.2,0-1.5,0-3.2,0-5,0Z"/>
        <path class="cls-6" d="M499,368.1c-4.4,0-7.2-2.2-8.3-6.6-4.7,4.5-9.6,6.8-14.5,6.8s-6.3-1-8.7-3c-2.4-2-3.5-4.9-3.5-8.5,0-8.8,9-14.3,26.9-16.6,0-1.6,0-3.2,0-4.9,0-1.7,0-3.4,0-5.3s-.8-4.1-2.5-5.4c-1.7-1.3-3.8-2-6.2-2s-3.2.3-4.4.8c0,1.5-.3,3.1-1,4.7-.7,1.6-1.6,3-2.8,4-1.2,1.1-2.6,1.7-4.2,1.7s-2.6-.4-3.5-1.2c-.8-.8-1.2-1.8-1.2-3.1s.8-3.1,2.2-4.5c1.5-1.4,3.4-2.7,5.8-3.7,2.3-1,4.8-1.9,7.3-2.4,2.5-.6,4.8-.9,6.8-.9s4.8.5,6.9,1.4c2.1.9,3.8,2.2,5.1,4,1.3,1.8,2,4,2,6.6s0,3.7,0,6.2c0,2.6-.1,5.3-.2,8.2,0,2.9,0,5.6-.2,8.2,0,2.6,0,4.7,0,6.3s.9,3.2,2.8,3.2,3-.4,5.5-1.2c.3.3.5.7.5,1.1.1.4.2.8.2,1.1-1.7,1.8-3.4,3.1-5.2,3.9-1.8.8-3.7,1.2-5.5,1.2ZM490.7,358.8l.2-15c-6.1.8-10.4,2.1-12.7,3.9-2.3,1.8-3.5,4.1-3.5,6.9s.6,4.1,1.9,5.3c1.2,1.2,2.8,1.9,4.6,1.9s2.6-.3,4.1-.8c1.5-.5,3.3-1.3,5.3-2.2Z"/>
        <path class="cls-6" d="M531.9,368.3c-4,0-7.2-1-9.5-2.9-2.3-1.9-3.5-4.6-3.5-8.2,0-5.9,0-11.5.1-17,.1-5.5.2-10.7.2-15.8h-7.6c-.2-1-.2-1.9,0-2.7,6.6-2.8,11.6-7.4,14.9-13.7.5,0,1.1,0,1.6,0,.5,0,1,0,1.4.1,0,1.7-.1,3.6-.1,5.5,0,1.9,0,4-.2,6.1h15.2c.2,1.5.2,3,0,4.6h-15.2c-.1,4.7-.2,9.6-.2,14.8,0,5.2,0,10.4,0,15.5s2.8,8.1,8.4,8.1,4.6-.6,6.7-1.9c.6.8,1,1.8,1.1,3-3.9,2.9-8.4,4.4-13.3,4.4Z"/>
        <path class="cls-6" d="M553.5,351.3c1,4.4,2.6,7.8,4.8,10,2.2,2.3,5,3.5,8.5,3.5s4.8-.6,6.6-1.9c1.8-1.2,2.7-3.2,2.7-5.8s-.5-3.6-1.5-4.8c-1-1.2-2.3-2.2-4-3-1.7-.8-3.6-1.7-5.8-2.6-2.5-1-4.8-2.1-7-3.2-2.2-1.2-3.9-2.6-5.3-4.4-1.4-1.8-2-4-2-6.9s.8-5.8,2.5-7.9,3.9-3.7,6.6-4.8c2.7-1.1,5.6-1.6,8.7-1.6s3.1.1,4.6.3c1.5.2,2.4.3,2.5.3,1.3.2,2.6.3,3.7.4,1.1,0,1.7,0,1.8,0h.5c.2,0,.5,0,1,0,0,2.1,0,4.3,0,6.5,0,2.2.2,4.5.4,7h-.4c-.6,0-1.1.1-1.6.1-.5,0-1,0-1.5,0-.9-3.7-2.2-6.4-3.9-8.1-1.7-1.7-4.1-2.5-7.1-2.5s-4.9.6-6.5,1.8c-1.6,1.2-2.5,2.9-2.5,5s.5,3.1,1.6,4.3c1.1,1.1,2.4,2,3.9,2.8,1.5.7,3,1.4,4.4,1.9,2.6,1,5.1,2.1,7.5,3.4,2.4,1.2,4.3,2.8,5.8,4.8s2.2,4.5,2.2,7.8-.9,6.3-2.6,8.5c-1.8,2.2-4,3.9-6.8,4.9-2.7,1-5.6,1.5-8.6,1.5s-3.4-.1-5.1-.4c-1.7-.3-2.6-.4-2.8-.4s-.7,0-1.7-.2c-1-.1-2-.3-3.2-.4-1.2-.1-2.2-.2-3-.2,0-2.1,0-4.4-.2-6.9-.2-2.5-.3-5.3-.5-8.4h.5c.6,0,1.1-.1,1.5-.1.4,0,.9,0,1.2,0Z"/>
      </g>
      <g>
        <path class="cls-5" d="M268.6,422.7c.9,0,1.7,0,2.4.3.6.2,1.1.4,1.5.8s.6.8.8,1.3.2,1.2.2,1.9,0,1.5-.3,2-.5,1-.9,1.4-.9.6-1.5.8c-.6.2-1.4.2-2.2.2h-2v4.8h-1.7v-13.4h3.7ZM268.4,429.9c.6,0,1.1,0,1.6-.1.4,0,.8-.2,1-.5.3-.2.4-.5.5-.9.1-.4.2-.8.2-1.4s0-.9-.2-1.3-.3-.6-.5-.9c-.3-.2-.6-.4-1-.5-.4,0-.9-.1-1.6-.1h-1.8v5.7h1.8Z"/>
        <path class="cls-5" d="M288,436.1h-1.4l-.2-1.5c-.2.3-.4.6-.6.8-.2.2-.5.4-.8.5-.3.1-.6.2-.9.3-.3,0-.6,0-1,0-.7,0-1.2,0-1.7-.3-.5-.2-.8-.4-1.1-.7-.3-.3-.5-.7-.6-1.1-.1-.4-.2-.9-.2-1.4v-7.2h1.7v6.6c0,.4,0,.8,0,1.1,0,.3.2.6.3.8.1.2.4.4.6.5.3.1.6.2,1,.2s.7,0,1,0c.3,0,.6-.1.8-.3.3-.1.5-.4.7-.6.2-.3.4-.6.6-1.1v-7.1h1.7v10.4Z"/>
        <path class="cls-5" d="M300,427h-.2c-.3,0-.7,0-1,0-.3,0-.6.2-.9.4s-.5.4-.8.7c-.2.3-.4.7-.6,1.1v6.8h-1.7v-10.4h1.7v1.9c.2-.4.4-.8.6-1.1.3-.3.5-.5.8-.6.3-.2.6-.3.9-.3.3,0,.6,0,1,0h.2v1.5Z"/>
        <path class="cls-5" d="M313.4,429.8c0,.1,0,.3,0,.5,0,.2,0,.4,0,.7l-7.1.4c0,.6,0,1.1.2,1.5.1.4.3.8.6,1,.3.3.6.5,1,.6.4.1,1,.2,1.6.2s1.2,0,1.8-.2,1.1-.3,1.5-.5v1.5c-.3.2-.8.3-1.4.4s-1.3.2-2.1.2-1.5,0-2.1-.3c-.6-.2-1.1-.5-1.5-.9-.4-.4-.7-1-.9-1.7-.2-.7-.3-1.6-.3-2.6s.1-1.9.3-2.6c.2-.7.5-1.2.9-1.7.4-.4.9-.7,1.5-.9s1.3-.3,2-.3,1.6.1,2.2.4c.5.3,1,.6,1.3,1,.3.4.5.9.6,1.4s.2,1,.2,1.5ZM311.7,429.9c0-.4,0-.8,0-1.1s-.2-.7-.3-1c-.2-.3-.4-.5-.8-.7-.3-.2-.8-.2-1.4-.2s-1.1,0-1.5.2-.7.4-.9.7c-.2.3-.4.7-.5,1.1,0,.4-.1.9-.2,1.4l5.5-.4Z"/>
        <path class="cls-5" d="M320.2,436.2c-.5,0-.8,0-1-.2s-.3-.5-.3-1,0-.8.3-1,.5-.2,1-.2.8,0,.9.2c.2.1.3.5.3,1s0,.9-.3,1c-.2.1-.5.2-.9.2Z"/>
        <path class="cls-5" d="M338.2,436.1h-1.8v-6.5h-6.6v6.5h-1.7v-13.4h1.7v5.5h6.6v-5.5h1.8v13.4Z"/>
        <path class="cls-5" d="M353.3,429.8c0,.1,0,.3,0,.5,0,.2,0,.4,0,.7l-7.1.4c0,.6,0,1.1.2,1.5.1.4.3.8.6,1,.3.3.6.5,1,.6.4.1,1,.2,1.6.2s1.2,0,1.8-.2,1.1-.3,1.5-.5v1.5c-.3.2-.8.3-1.4.4s-1.3.2-2.1.2-1.5,0-2.1-.3c-.6-.2-1.1-.5-1.5-.9-.4-.4-.7-1-.9-1.7-.2-.7-.3-1.6-.3-2.6s.1-1.9.3-2.6c.2-.7.5-1.2.9-1.7.4-.4.9-.7,1.5-.9s1.3-.3,2-.3,1.6.1,2.2.4c.5.3,1,.6,1.3,1,.3.4.5.9.6,1.4s.2,1,.2,1.5ZM351.7,429.9c0-.4,0-.8,0-1.1s-.2-.7-.3-1c-.2-.3-.4-.5-.8-.7-.3-.2-.8-.2-1.4-.2s-1.1,0-1.5.2-.7.4-.9.7c-.2.3-.4.7-.5,1.1,0,.4-.1.9-.2,1.4l5.5-.4Z"/>
        <path class="cls-5" d="M363.6,425.5c.8,0,1.5,0,2,.2.5.2,1,.4,1.3.7s.5.6.7,1c.1.4.2.8.2,1.3v7.4h-1.4l-.3-1.6c-.2.3-.4.5-.6.8-.3.2-.5.4-.9.6-.3.2-.7.3-1.1.3-.4,0-.8.1-1.2.1-1.2,0-2.2-.3-2.7-.8s-.9-1.3-.9-2.3,0-1.1.3-1.6c.2-.4.5-.8.8-1s.8-.4,1.3-.6c.5-.1,1.1-.2,1.7-.2h3.2v-.9c0-.3,0-.6-.1-.9,0-.3-.2-.5-.4-.7s-.4-.3-.8-.4c-.3-.1-.8-.2-1.3-.2s-.7,0-1.1,0c-.4,0-.8,0-1.2.2v-1.5c.4,0,.8,0,1.2-.1.4,0,.8,0,1.2,0ZM360.5,433.2c0,.6.2,1,.5,1.3.3.3.8.4,1.6.4s1.6-.2,2.2-.5c.6-.4,1.1-.8,1.3-1.5v-1.7h-3.1c-.4,0-.8,0-1.1,0-.3,0-.6.2-.8.3-.2.1-.4.4-.5.6-.1.3-.2.6-.2,1Z"/>
        <path class="cls-5" d="M376.9,436.2c-.8,0-1.4-.2-1.7-.5-.4-.3-.6-.9-.6-1.7v-12.6h1.7v12.2c0,.5,0,.9.2,1,.2.2.4.2.7.2s.2,0,.4,0c.1,0,.3,0,.4,0v1.4c-.2,0-.3,0-.5,0s-.4,0-.6,0Z"/>
        <path class="cls-5" d="M386.6,436.2c-.6,0-1.1,0-1.5-.1-.4,0-.7-.2-1-.5-.3-.2-.4-.6-.5-1-.1-.4-.2-1-.2-1.7v-5.9h-1.5v-1.4h1.5v-2.5h1.7v2.5h2.6v1.4h-2.6v5.8c0,.4,0,.7,0,1,0,.3.1.5.2.6.1.1.3.3.5.3.2,0,.5,0,.8,0s.4,0,.6,0,.4,0,.5,0v1.4c-.2,0-.4,0-.6,0-.2,0-.4,0-.6,0Z"/>
        <path class="cls-5" d="M398.3,425.5c.7,0,1.2,0,1.7.3.5.2.8.4,1.1.7.3.3.5.7.6,1.1s.2.9.2,1.4v7.2h-1.7v-6.6c0-.4,0-.8,0-1.1,0-.3-.2-.6-.3-.8-.1-.2-.4-.4-.6-.5-.3-.1-.6-.2-1-.2s-.7,0-1,0c-.3,0-.6.1-.9.3-.3.1-.5.4-.8.6-.2.3-.4.6-.6,1.1v7.1h-1.7v-14.7h1.7v5.7c.2-.3.4-.6.6-.8.2-.2.5-.4.8-.5.3-.1.6-.2.9-.3.3,0,.7,0,1,0Z"/>
        <path class="cls-5" d="M409,438.4c.3,0,.6-.2.8-.5s.4-.5.6-.8c.2-.3.3-.7.4-1.1l-4.2-10.4h1.8l3.2,8.7h.1l3-8.7h1.7l-3.7,10.1c-.2.7-.5,1.2-.8,1.8-.3.5-.6,1-.9,1.3s-.8.6-1.3.8-1.2.3-1.9.3v-1.4c.5,0,.8,0,1.2-.1Z"/>
        <path class="cls-5" d="M421.1,436.2c-.5,0-.8,0-1-.2s-.3-.5-.3-1,0-.8.3-1,.5-.2,1-.2.8,0,.9.2c.2.1.3.5.3,1s0,.9-.3,1c-.2.1-.5.2-.9.2Z"/>
        <path class="cls-5" d="M433.7,436.3c-1,0-1.9,0-2.6-.3-.8-.2-1.4-.5-2-1.1s-1-1.2-1.2-2.1c-.3-.9-.4-2-.4-3.4s.1-2.4.4-3.3.7-1.6,1.3-2.1c.6-.5,1.2-.9,2-1.2.8-.2,1.7-.3,2.7-.3s.6,0,1,0c.3,0,.6,0,1,.1.3,0,.6.1.9.2.3,0,.5.1.7.2v1.5c-.9-.4-2-.5-3.4-.5s-1.4,0-2,.2-1.1.4-1.5.8c-.4.4-.7.9-.9,1.6-.2.7-.3,1.6-.3,2.7s0,2.1.3,2.8c.2.7.5,1.2.9,1.6.4.4.9.6,1.5.8.6.1,1.2.2,2,.2s.7,0,1.1,0c.4,0,.8-.1,1.1-.2v-4.2h-2.7v-1.5h4.3v6.8c-.5.2-1.1.3-1.7.4-.7.1-1.4.2-2.3.2Z"/>
        <path class="cls-5" d="M452.6,436.1h-1.4l-.2-1.5c-.2.3-.4.6-.6.8-.2.2-.5.4-.8.5-.3.1-.6.2-.9.3-.3,0-.6,0-1,0-.7,0-1.2,0-1.7-.3-.5-.2-.8-.4-1.1-.7-.3-.3-.5-.7-.6-1.1-.1-.4-.2-.9-.2-1.4v-7.2h1.7v6.6c0,.4,0,.8,0,1.1,0,.3.2.6.3.8.1.2.4.4.6.5.3.1.6.2,1,.2s.7,0,1,0c.3,0,.6-.1.8-.3.3-.1.5-.4.7-.6.2-.3.4-.6.6-1.1v-7.1h1.7v10.4Z"/>
        <path class="cls-5" d="M460.3,423.8c-.4,0-.6,0-.8-.2-.1-.1-.2-.4-.2-.8s0-.7.2-.8c.1-.1.4-.2.8-.2s.6,0,.8.2c.2.1.2.4.2.8s0,.7-.2.8c-.2.1-.4.2-.8.2ZM459.4,425.7h1.7v10.4h-1.7v-10.4Z"/>
        <path class="cls-5" d="M470.2,436.2c-.8,0-1.4-.2-1.7-.5-.4-.3-.6-.9-.6-1.7v-12.6h1.7v12.2c0,.5,0,.9.2,1,.2.2.4.2.7.2s.2,0,.4,0c.1,0,.3,0,.4,0v1.4c-.2,0-.3,0-.5,0s-.4,0-.6,0Z"/>
        <path class="cls-5" d="M480,436.2c-.6,0-1.1,0-1.5-.1-.4,0-.7-.2-1-.5-.3-.2-.4-.6-.5-1-.1-.4-.2-1-.2-1.7v-5.9h-1.5v-1.4h1.5v-2.5h1.7v2.5h2.6v1.4h-2.6v5.8c0,.4,0,.7,0,1,0,.3.1.5.2.6.1.1.3.3.5.3.2,0,.5,0,.8,0s.4,0,.6,0,.4,0,.5,0v1.4c-.2,0-.4,0-.6,0-.2,0-.4,0-.6,0Z"/>
        <path class="cls-5" d="M490.4,422.7c-.3,0-.6,0-.9.1-.2,0-.4.2-.6.5-.1.2-.3.5-.3.9,0,.4,0,.9,0,1.5h2.5v1.4h-2.5v9.1h-1.7v-9.1h-1.7v-1.4h1.7c0-1,0-1.7.3-2.3.2-.6.4-1,.7-1.3.3-.3.7-.5,1.1-.6.4-.1.9-.2,1.4-.2s.4,0,.6,0c.2,0,.4,0,.6,0v1.3c-.4,0-.7,0-1.2,0Z"/>
        <path class="cls-5" d="M501.7,427h-.2c-.3,0-.7,0-1,0-.3,0-.6.2-.9.4s-.5.4-.8.7c-.2.3-.4.7-.6,1.1v6.8h-1.7v-10.4h1.7v1.9c.2-.4.4-.8.6-1.1.3-.3.5-.5.8-.6.3-.2.6-.3.9-.3.3,0,.6,0,1,0h.2v1.5Z"/>
        <path class="cls-5" d="M515.2,429.8c0,.1,0,.3,0,.5,0,.2,0,.4,0,.7l-7.1.4c0,.6,0,1.1.2,1.5.1.4.3.8.6,1,.3.3.6.5,1,.6.4.1,1,.2,1.6.2s1.2,0,1.8-.2,1.1-.3,1.5-.5v1.5c-.3.2-.8.3-1.4.4s-1.3.2-2.1.2-1.5,0-2.1-.3c-.6-.2-1.1-.5-1.5-.9-.4-.4-.7-1-.9-1.7-.2-.7-.3-1.6-.3-2.6s.1-1.9.3-2.6c.2-.7.5-1.2.9-1.7.4-.4.9-.7,1.5-.9s1.3-.3,2-.3,1.6.1,2.2.4c.5.3,1,.6,1.3,1,.3.4.5.9.6,1.4s.2,1,.2,1.5ZM513.5,429.9c0-.4,0-.8,0-1.1s-.2-.7-.3-1c-.2-.3-.4-.5-.8-.7-.3-.2-.8-.2-1.4-.2s-1.1,0-1.5.2-.7.4-.9.7c-.2.3-.4.7-.5,1.1,0,.4-.1.9-.2,1.4l5.5-.4Z"/>
        <path class="cls-5" d="M529.6,429.8c0,.1,0,.3,0,.5,0,.2,0,.4,0,.7l-7.1.4c0,.6,0,1.1.2,1.5.1.4.3.8.6,1,.3.3.6.5,1,.6.4.1,1,.2,1.6.2s1.2,0,1.8-.2,1.1-.3,1.5-.5v1.5c-.3.2-.8.3-1.4.4s-1.3.2-2.1.2-1.5,0-2.1-.3c-.6-.2-1.1-.5-1.5-.9-.4-.4-.7-1-.9-1.7-.2-.7-.3-1.6-.3-2.6s.1-1.9.3-2.6c.2-.7.5-1.2.9-1.7.4-.4.9-.7,1.5-.9s1.3-.3,2-.3,1.6.1,2.2.4c.5.3,1,.6,1.3,1,.3.4.5.9.6,1.4s.2,1,.2,1.5ZM528,429.9c0-.4,0-.8,0-1.1s-.2-.7-.3-1c-.2-.3-.4-.5-.8-.7-.3-.2-.8-.2-1.4-.2s-1.1,0-1.5.2-.7.4-.9.7c-.2.3-.4.7-.5,1.1,0,.4-.1.9-.2,1.4l5.5-.4Z"/>
      </g>
      <path class="cls-6" d="M183.4,407.5c110.7-8.1,284.7-19.8,396.7-27.3,0,0,.2,2,.2,2l-185.3,17.5c-46.2,4.3-139.2,12.8-185.4,17,46.2-4.7,139-13.9,185.2-18.5,0,0,185.3-17.9,185.3-17.9l.2,2c-112.5,7.4-285.6,18.7-396.8,25.4h0Z"/>
      <g>
        <path class="cls-4" d="M263.5,323.2c-.5-.2.5-4.5,2.2-8.5,2.3-5.3,5.2-8.5,5.9-9.3,1.4-1.5,3.8-4.1,7.7-6.2.9-.5,3.7-1.9,7.7-2.7,3.3-.6,6.1-.5,8.1-.3,0,1.1,0,2.5-.3,4.2-.6,4.1-1.7,7-2,7.7-.5,1.2-2,4.6-5.1,8.3-3.3,3.9-6.7,6-7.5,6.5-3.4,2.1-6.5,2.9-8.2,3.3-2.7.6-5.1.8-6.8.7,1.4-2.9,2.8-5.2,4.1-7.1.6-.9,2.8-4,6.2-7.4,1.4-1.4,3.2-3.2,6-5.2,1.7-1.3,3.3-2.2,4.5-2.8-1,.2-2.4.5-4,1.1-3.1,1.1-5.1,2.7-6.9,4.1-3.7,2.8-6,5.6-6.7,6.6-3.3,4.1-4.4,7.3-4.8,7.1Z"/>
        <path class="cls-1" d="M260.5,315.2c-2.5-2.2-4.7-3.6-6.4-4.6-2.5-1.4-5.2-3-9-3.6-2.5-.4-4.6-.3-6,0,2.3.6,4.4,1.3,6,2,4.6,1.9,8.1,4,10.2,5.5,2,1.4,3.6,2.7,4.8,3.8-.4.2-1,.5-1.7.7-1.9.7-3.5.7-4.5.7-6.3.2-10.9-1.9-10.9-1.9-4.3-1.9-6.7-4.7-8.3-6.5-2.6-3-4.1-6-5-8,1.2-.5,2.9-1.2,5-1.6,1.4-.3,5-.8,9.5.2.8.2,4.3,1.1,8.2,3.7,4.5,3.1,7,7,8.2,9.4Z"/>
        <path class="cls-2" d="M262.1,309.4c0-1.9,0-4.2.4-6.8.7-4.2,2.1-7.5,3.3-9.7-1,1-2.1,2.4-3.1,4.2-2.5,4.5-2.6,9-2.5,11.2-.6-1.6-2-5.6-.9-10.6,1-4.8,3.7-7.8,4.3-8.5,1.7-1.8,3.4-2.9,4.6-3.5.8,1.4,1.9,4,2.2,7.4.3,5-1.5,8.7-2.1,9.7-2,3.7-4.8,5.7-6.2,6.6Z"/>
      </g>
    </g>
  </g>
</svg>